<?xml version="1.0" encoding="utf-8"?>
<!-- Generator: Adobe Illustrator 27.5.0, SVG Export Plug-In . SVG Version: 6.00 Build 0)  -->
<svg version="1.1" xmlns="http://www.w3.org/2000/svg" xmlns:xlink="http://www.w3.org/1999/xlink" x="0px" y="0px"
	 viewBox="0 0 499.999 500" style="enable-background:new 0 0 499.999 500;" xml:space="preserve">
<g id="BACKGROUND">
	<rect x="-0.001" style="fill:#FFFFFF;" width="500" height="500"/>
</g>
<g id="OBJECTS">
	<g>
		<path style="fill:#C1E6E3;" d="M243.827,455.829c77.08-17.121,203.996,35.312,180.524-123.057
			c-10.191-68.763-38.75-98.57-32.416-182.266c5.238-69.197-76.694-75.272-138.625-70.802
			c-61.931,4.47-132.77,36.108-137.042,114.208c-5.031,91.965-13.053,92.73-26.963,167.62
			C79.34,415.178,97.749,488.276,243.827,455.829z"/>
		<g>
			<g>
				<rect x="70.925" y="127.671" style="fill:#F5E9C4;" width="122.789" height="81.438"/>
				<g>
					<path style="fill:#FFFFFF;" d="M193.713,182.699H70.925c-0.295,0-0.535-0.239-0.535-0.535c0-0.295,0.239-0.535,0.535-0.535
						h122.789c0.296,0,0.535,0.239,0.535,0.535C194.249,182.46,194.009,182.699,193.713,182.699z"/>
					<path style="fill:#FFFFFF;" d="M193.713,171.012H70.925c-0.295,0-0.535-0.239-0.535-0.535c0-0.295,0.239-0.535,0.535-0.535
						h122.789c0.296,0,0.535,0.239,0.535,0.535C194.249,170.773,194.009,171.012,193.713,171.012z"/>
					<path style="fill:#FFFFFF;" d="M193.713,159.326H70.925c-0.295,0-0.535-0.239-0.535-0.535c0-0.296,0.239-0.535,0.535-0.535
						h122.789c0.296,0,0.535,0.239,0.535,0.535C194.249,159.087,194.009,159.326,193.713,159.326z"/>
					<path style="fill:#FFFFFF;" d="M193.713,147.639H70.925c-0.295,0-0.535-0.239-0.535-0.535c0-0.295,0.239-0.535,0.535-0.535
						h122.789c0.296,0,0.535,0.239,0.535,0.535C194.249,147.399,194.009,147.639,193.713,147.639z"/>
					<path style="fill:#FFFFFF;" d="M193.713,135.953H70.925c-0.295,0-0.535-0.239-0.535-0.535c0-0.296,0.239-0.535,0.535-0.535
						h122.789c0.296,0,0.535,0.239,0.535,0.535C194.249,135.713,194.009,135.953,193.713,135.953z"/>
				</g>
				<g>
					<rect x="80.154" y="170.347" style="fill:#BA6E4B;" width="8.025" height="23.632"/>
					<rect x="96.205" y="155.43" style="fill:#E6885D;" width="8.025" height="38.342"/>
					<rect x="112.255" y="165.513" style="fill:#BA6E4B;" width="8.025" height="28.399"/>
					<rect x="128.306" y="152.937" style="fill:#E6885D;" width="8.025" height="40.801"/>
					<rect x="144.357" y="141.708" style="fill:#BA6E4B;" width="8.025" height="51.873"/>
					<rect x="160.408" y="155.506" style="fill:#E6885D;" width="8.025" height="38.267"/>
					<rect x="176.458" y="150.65" style="fill:#BA6E4B;" width="8.026" height="43.055"/>
				</g>
				<g>
					<path style="fill:#BA6E4B;" d="M85.52,202.055c0,1.482-1.201,2.683-2.683,2.683c-1.481,0-2.683-1.201-2.683-2.683
						c0-1.481,1.201-2.683,2.683-2.683C84.318,199.372,85.52,200.573,85.52,202.055z"/>
					<rect x="89.8" y="200.977" style="fill:#BA6E4B;" width="30.481" height="1.962"/>
				</g>
				<g>
					<path style="fill:#E6885D;" d="M136.267,202.055c0,1.482-1.201,2.683-2.683,2.683c-1.482,0-2.683-1.201-2.683-2.683
						c0-1.481,1.201-2.683,2.683-2.683C135.065,199.372,136.267,200.573,136.267,202.055z"/>
					<rect x="140.547" y="200.977" style="fill:#E6885D;" width="30.481" height="1.962"/>
				</g>
				<path style="fill:#FFFFFF;" d="M193.713,194.385H70.925c-0.295,0-0.535-0.239-0.535-0.535c0-0.295,0.239-0.535,0.535-0.535
					h122.789c0.296,0,0.535,0.239,0.535,0.535C194.249,194.145,194.009,194.385,193.713,194.385z"/>
				<path style="fill:#AD9A5D;" d="M193.713,209.645H70.925c-0.295,0-0.535-0.239-0.535-0.535v-81.438
					c0-0.296,0.239-0.535,0.535-0.535h122.789c0.296,0,0.535,0.239,0.535,0.535v81.438
					C194.249,209.405,194.009,209.645,193.713,209.645z M71.46,208.575h121.718v-80.368H71.46V208.575z"/>
			</g>
			<g>
				<path style="fill:#DFF5F4;" d="M434.98,332.999c0,1.182-0.959,2.141-2.14,2.141h-79.091c-1.181,0-2.14-0.959-2.14-2.141v-92.561
					c0-1.182,0.959-2.14,2.14-2.14h79.091c1.181,0,2.14,0.958,2.14,2.14V332.999z"/>
				<path style="fill:#5A8C8B;" d="M432.84,335.674h-79.091c-1.475,0-2.675-1.2-2.675-2.676v-92.561c0-1.475,1.2-2.675,2.675-2.675
					h79.091c1.476,0,2.675,1.201,2.675,2.675v92.561C435.515,334.474,434.316,335.674,432.84,335.674z M353.749,238.833
					c-0.884,0-1.604,0.72-1.604,1.605v92.561c0,0.886,0.721,1.605,1.604,1.605h79.091c0.884,0,1.604-0.72,1.604-1.605v-92.561
					c0-0.885-0.721-1.605-1.604-1.605H353.749z"/>
				<g>
					<path style="fill:#5A8C8B;" d="M365.591,252.029c0,1.322-1.072,2.393-2.395,2.393c-1.321,0-2.393-1.07-2.393-2.393
						c0-1.323,1.072-2.395,2.393-2.395C364.519,249.634,365.591,250.706,365.591,252.029z"/>
					<path style="fill:#5A8C8B;" d="M425.979,252.564h-54.573c-0.295,0-0.535-0.239-0.535-0.535c0-0.296,0.24-0.535,0.535-0.535
						h54.573c0.297,0,0.535,0.239,0.535,0.535C426.514,252.325,426.276,252.564,425.979,252.564z"/>
					<path style="fill:#5A8C8B;" d="M365.591,262.194c0,1.323-1.072,2.395-2.395,2.395c-1.321,0-2.393-1.071-2.393-2.395
						c0-1.322,1.072-2.394,2.393-2.394C364.519,259.8,365.591,260.872,365.591,262.194z"/>
					<path style="fill:#5A8C8B;" d="M425.979,262.729h-54.573c-0.295,0-0.535-0.239-0.535-0.535c0-0.295,0.24-0.534,0.535-0.534
						h54.573c0.297,0,0.535,0.239,0.535,0.534C426.514,262.49,426.276,262.729,425.979,262.729z"/>
					<path style="fill:#5A8C8B;" d="M365.591,272.36c0,1.322-1.072,2.393-2.395,2.393c-1.321,0-2.393-1.07-2.393-2.393
						c0-1.323,1.072-2.393,2.393-2.393C364.519,269.967,365.591,271.037,365.591,272.36z"/>
					<path style="fill:#5A8C8B;" d="M425.979,272.895h-54.573c-0.295,0-0.535-0.239-0.535-0.535s0.24-0.535,0.535-0.535h54.573
						c0.297,0,0.535,0.239,0.535,0.535S426.276,272.895,425.979,272.895z"/>
					<path style="fill:#5A8C8B;" d="M365.591,282.523c0,1.323-1.072,2.395-2.395,2.395c-1.321,0-2.393-1.072-2.393-2.395
						c0-1.322,1.072-2.393,2.393-2.393C364.519,280.13,365.591,281.201,365.591,282.523z"/>
					<path style="fill:#5A8C8B;" d="M425.979,283.058h-54.573c-0.295,0-0.535-0.239-0.535-0.535c0-0.295,0.24-0.534,0.535-0.534
						h54.573c0.297,0,0.535,0.239,0.535,0.534C426.514,282.819,426.276,283.058,425.979,283.058z"/>
				</g>
				<g>
					<g>
						<path style="fill:#24A19C;" d="M395.056,292.493c-0.786,0-1.558,0.055-2.316,0.153l2.316,17.929l-13.821,11.653
							c3.316,3.93,8.276,6.428,13.821,6.428c9.985,0,18.08-8.096,18.08-18.081C413.136,300.587,405.041,292.493,395.056,292.493z"/>
					</g>
					<path style="fill:#80C7C5;" d="M390.901,289.427c-3.841,0.491-7.305,2.186-10,4.696l12.315,13.232L390.901,289.427z"/>
					<path style="fill:#24A19C;" d="M381.36,296.422c-3.544,3.301-5.764,8.007-5.764,13.232c0,4.441,1.603,8.507,4.262,11.655
						l13.818-11.655L381.36,296.422z"/>
				</g>
			</g>
			<g>
				<g>
					<path style="fill:#ED554F;" d="M89.748,298.1c0,6.975-5.656,12.63-12.631,12.63c-6.976,0-12.632-5.655-12.632-12.63
						c0-6.978,5.656-12.633,12.632-12.633C84.092,285.467,89.748,291.123,89.748,298.1z"/>
					<path style="fill:#FFFFFF;" d="M83.937,298.1c0,3.765-3.054,6.819-6.82,6.819c-3.766,0-6.82-3.055-6.82-6.819
						c0-3.768,3.054-6.822,6.82-6.822C80.882,291.278,83.937,294.332,83.937,298.1z"/>
					<path style="fill:#ED554F;" d="M184.484,305.38c0,2.955-2.396,5.35-5.351,5.35H99.236c-2.955,0-5.35-2.395-5.35-5.35v-14.564
						c0-2.955,2.396-5.35,5.35-5.35h79.897c2.955,0,5.351,2.395,5.351,5.35V305.38z"/>
					<g>
						<path style="fill:#FFFFFF;" d="M162.279,293.016h-61.35c-0.295,0-0.535-0.239-0.535-0.535s0.239-0.535,0.535-0.535h61.35
							c0.296,0,0.535,0.239,0.535,0.535S162.575,293.016,162.279,293.016z"/>
						<path style="fill:#FFFFFF;" d="M162.279,298.633h-61.35c-0.295,0-0.535-0.239-0.535-0.534c0-0.296,0.239-0.535,0.535-0.535
							h61.35c0.296,0,0.535,0.239,0.535,0.535C162.814,298.394,162.575,298.633,162.279,298.633z"/>
						<path style="fill:#FFFFFF;" d="M162.279,304.251h-61.35c-0.295,0-0.535-0.239-0.535-0.535s0.239-0.535,0.535-0.535h61.35
							c0.296,0,0.535,0.239,0.535,0.535S162.575,304.251,162.279,304.251z"/>
					</g>
				</g>
				<g>
					<path style="fill:#E6C971;" d="M89.748,334.125c0,6.975-5.656,12.631-12.631,12.631c-6.976,0-12.632-5.656-12.632-12.631
						c0-6.977,5.656-12.633,12.632-12.633C84.092,321.493,89.748,327.148,89.748,334.125z"/>
					<path style="fill:#FFFFFF;" d="M83.937,334.125c0,3.765-3.054,6.819-6.82,6.819c-3.766,0-6.82-3.055-6.82-6.819
						c0-3.768,3.054-6.822,6.82-6.822C80.882,327.303,83.937,330.358,83.937,334.125z"/>
					<path style="fill:#E6C971;" d="M184.484,341.406c0,2.955-2.396,5.351-5.351,5.351H99.236c-2.955,0-5.35-2.396-5.35-5.351
						v-14.563c0-2.956,2.396-5.351,5.35-5.351h79.897c2.955,0,5.351,2.395,5.351,5.351V341.406z"/>
					<g>
						<path style="fill:#FFFFFF;" d="M162.279,329.042h-61.35c-0.295,0-0.535-0.239-0.535-0.535s0.239-0.535,0.535-0.535h61.35
							c0.296,0,0.535,0.239,0.535,0.535S162.575,329.042,162.279,329.042z"/>
						<path style="fill:#FFFFFF;" d="M162.279,334.66h-61.35c-0.295,0-0.535-0.239-0.535-0.535s0.239-0.535,0.535-0.535h61.35
							c0.296,0,0.535,0.239,0.535,0.535S162.575,334.66,162.279,334.66z"/>
						<path style="fill:#FFFFFF;" d="M162.279,340.277h-61.35c-0.295,0-0.535-0.239-0.535-0.535c0-0.295,0.239-0.535,0.535-0.535
							h61.35c0.296,0,0.535,0.24,0.535,0.535C162.814,340.038,162.575,340.277,162.279,340.277z"/>
					</g>
				</g>
				<g>
					<path style="fill:#ED554F;" d="M89.748,370.151c0,6.976-5.656,12.631-12.631,12.631c-6.976,0-12.632-5.655-12.632-12.631
						c0-6.978,5.656-12.633,12.632-12.633C84.092,357.518,89.748,363.173,89.748,370.151z"/>
					<path style="fill:#FFFFFF;" d="M83.937,370.151c0,3.765-3.054,6.819-6.82,6.819c-3.766,0-6.82-3.055-6.82-6.819
						c0-3.768,3.054-6.821,6.82-6.821C80.882,363.33,83.937,366.383,83.937,370.151z"/>
					<path style="fill:#ED554F;" d="M184.484,377.431c0,2.955-2.396,5.351-5.351,5.351H99.236c-2.955,0-5.35-2.396-5.35-5.351
						v-14.563c0-2.955,2.396-5.351,5.35-5.351h79.897c2.955,0,5.351,2.396,5.351,5.351V377.431z"/>
					<g>
						<path style="fill:#FFFFFF;" d="M162.279,365.067h-61.35c-0.295,0-0.535-0.239-0.535-0.535s0.239-0.535,0.535-0.535h61.35
							c0.296,0,0.535,0.239,0.535,0.535S162.575,365.067,162.279,365.067z"/>
						<path style="fill:#FFFFFF;" d="M162.279,370.685h-61.35c-0.295,0-0.535-0.239-0.535-0.535s0.239-0.535,0.535-0.535h61.35
							c0.296,0,0.535,0.239,0.535,0.535S162.575,370.685,162.279,370.685z"/>
						<path style="fill:#FFFFFF;" d="M162.279,376.302h-61.35c-0.295,0-0.535-0.239-0.535-0.534c0-0.296,0.239-0.535,0.535-0.535
							h61.35c0.296,0,0.535,0.239,0.535,0.535C162.814,376.063,162.575,376.302,162.279,376.302z"/>
					</g>
				</g>
			</g>
			<g>
				<rect x="315.205" y="111.27" style="fill:#E6726E;" width="109.146" height="67.057"/>
				<g>
					<rect x="325.55" y="111.27" style="fill:#F0A08B;" width="1.07" height="67.057"/>
					<rect x="343.027" y="111.27" style="fill:#F0A08B;" width="1.069" height="67.057"/>
					<rect x="360.504" y="111.27" style="fill:#F0A08B;" width="1.07" height="67.057"/>
					<rect x="377.981" y="111.27" style="fill:#F0A08B;" width="1.07" height="67.057"/>
					<rect x="395.46" y="111.27" style="fill:#F0A08B;" width="1.069" height="67.057"/>
					<rect x="412.935" y="111.27" style="fill:#F0A08B;" width="1.07" height="67.057"/>
				</g>
				<g>
					<polygon style="fill:#FFFFFF;" points="315.512,161.843 314.898,160.966 325.998,153.196 343.486,158.951 360.954,147.607 
						378.665,152.666 395.704,154.396 413.213,123.933 424.491,126.979 424.21,128.013 413.73,125.18 396.285,155.531 
						378.461,153.713 361.128,148.769 343.639,160.128 326.173,154.38 					"/>
					<polygon style="fill:#FFFFFF;" points="343.576,152.241 325.983,139.785 315.349,142.729 315.063,141.697 326.188,138.619 
						343.549,150.91 360.924,137.478 378.41,142.348 395.885,129.591 413.374,134.282 424.052,127.053 424.652,127.939 
						413.569,135.442 396.103,130.757 378.623,143.519 361.155,138.652 					"/>
				</g>
				<g>
					<path style="fill:#FFFFFF;" d="M327.952,153.788c0,1.03-0.836,1.865-1.866,1.865s-1.864-0.835-1.864-1.865
						c0-1.031,0.834-1.865,1.864-1.865S327.952,152.757,327.952,153.788z"/>
					<path style="fill:#FFFFFF;" d="M327.952,139.202c0,1.031-0.836,1.866-1.866,1.866s-1.864-0.835-1.864-1.866
						c0-1.03,0.834-1.865,1.864-1.865S327.952,138.171,327.952,139.202z"/>
					<path style="fill:#FFFFFF;" d="M345.428,159.539c0,1.03-0.836,1.865-1.867,1.865c-1.03,0-1.864-0.835-1.864-1.865
						c0-1.03,0.834-1.865,1.864-1.865C344.592,157.674,345.428,158.509,345.428,159.539z"/>
					<path style="fill:#FFFFFF;" d="M345.428,151.575c0,1.03-0.836,1.865-1.867,1.865c-1.03,0-1.864-0.835-1.864-1.865
						c0-1.03,0.834-1.865,1.864-1.865C344.592,149.71,345.428,150.545,345.428,151.575z"/>
					<path style="fill:#FFFFFF;" d="M362.906,148.529c0,1.031-0.836,1.866-1.866,1.866s-1.864-0.835-1.864-1.866
						c0-1.031,0.834-1.866,1.864-1.866S362.906,147.499,362.906,148.529z"/>
					<path style="fill:#FFFFFF;" d="M362.906,138.631c0,1.031-0.836,1.866-1.866,1.866s-1.864-0.835-1.864-1.866
						c0-1.03,0.834-1.865,1.864-1.865S362.906,137.601,362.906,138.631z"/>
					<path style="fill:#FFFFFF;" d="M380.382,153.441c0,1.031-0.836,1.866-1.866,1.866c-1.03,0-1.864-0.835-1.864-1.866
						c0-1.03,0.834-1.865,1.864-1.865C379.546,151.575,380.382,152.41,380.382,153.441z"/>
					<path style="fill:#FFFFFF;" d="M380.382,142.98c0,1.031-0.836,1.866-1.866,1.866c-1.03,0-1.864-0.835-1.864-1.866
						c0-1.031,0.834-1.866,1.864-1.866C379.546,141.115,380.382,141.95,380.382,142.98z"/>
					<path style="fill:#FFFFFF;" d="M397.861,154.8c0,1.031-0.836,1.865-1.866,1.865c-1.031,0-1.864-0.835-1.864-1.865
						c0-1.03,0.833-1.865,1.864-1.865C397.025,152.935,397.861,153.77,397.861,154.8z"/>
					<path style="fill:#FFFFFF;" d="M397.861,130.366c0,1.032-0.836,1.867-1.866,1.867c-1.031,0-1.864-0.835-1.864-1.867
						c0-1.03,0.833-1.865,1.864-1.865C397.025,128.501,397.861,129.336,397.861,130.366z"/>
					<path style="fill:#FFFFFF;" d="M415.336,124.556c0,1.03-0.836,1.865-1.866,1.865c-1.03,0-1.864-0.835-1.864-1.865
						c0-1.03,0.834-1.865,1.864-1.865C414.5,122.691,415.336,123.526,415.336,124.556z"/>
					<path style="fill:#FFFFFF;" d="M415.336,134.899c0,1.031-0.836,1.866-1.866,1.866c-1.03,0-1.864-0.835-1.864-1.866
						c0-1.03,0.834-1.865,1.864-1.865C414.5,133.034,415.336,133.869,415.336,134.899z"/>
				</g>
				<path style="fill:#CC4944;" d="M424.885,178.862H314.67v-68.127h110.215V178.862z M315.74,177.792h108.076v-65.987H315.74
					V177.792z"/>
			</g>
		</g>
		<g>
			<path style="fill:#2D3440;" d="M247.187,75.959c-16.051-3.21-36.382,7.769-43.872,46.686c-7.49,38.918-3.21,43.733-16.051,56.574
				c-12.84,12.84-32.637,33.706-11.77,71.693c36.382,0,148.204,0,167.999,0c8.561-16.586,8.293-23.809,0-32.102
				c-8.293-8.293-10.166-13.376-10.166-24.076s6.331-22.56-11.325-32.19c-17.656-9.631-14.001-25.236-16.496-46.459
				C303.359,97.842,286.245,57.232,247.187,75.959z"/>
			<g>
				<g>
					<path style="fill:#325288;" d="M222.041,227.549c-20.331,7.134-55.999,14.269-60.993,32.816
						c-4.993,18.547-9.746,75.058-13.554,103.561c-4.827,36.126,23.897,50.527,34.42,50.527c1.337,10.344,2.537,25.846-1.744,49.387
						c34.113,0,54.801-7.119,82.251-10.767c17.226-2.288,46.204-0.187,74.388-1.763c0-11.413-4.555-35.432,1.153-55.405
						c15.695-7.9,25.044-11.058,40.025-16.052c-15.129-40.272-20.793-93.828-26.498-115.942
						c-5.708-22.115-21.805-26.278-65.462-37.294C252.002,226.617,233.811,227.549,222.041,227.549z"/>
					<g>
						<path style="fill:#294470;" d="M204.029,376.566c-4.507,41.741-22.115,37.888-22.115,37.888
							c0.761,5.886,1.455,13.554,1.126,23.401C199.028,430.337,206.169,407.596,204.029,376.566z"/>
						<path style="fill:#294470;" d="M215.333,290.263c0,0,11.79-3.773,14.911-4.752c-2.625,2.729-7.922,8.301-9.574,9.952
							C219.812,292.645,216.65,290.736,215.333,290.263z"/>
						<path style="fill:#294470;" d="M294.552,290.192c0,0-4.357,2.146-6.274,4.064c-2.148-2.232-7.545-7.876-8.412-8.744
							C282.098,286.222,293.165,289.75,294.552,290.192z"/>
					</g>
					<g>
						<path style="fill:#253D66;" d="M153.2,366.479c-0.037,0-0.074-0.004-0.112-0.012c-0.289-0.061-0.474-0.346-0.412-0.635
							c6.977-32.877,17.237-84.466,17.34-84.983c0.057-0.289,0.333-0.482,0.629-0.42c0.29,0.058,0.478,0.339,0.42,0.629
							c-0.102,0.518-10.363,52.113-17.342,84.996C153.67,366.306,153.447,366.479,153.2,366.479z"/>
						<path style="fill:#253D66;" d="M183.569,415.126c-0.574,0-1.155-0.048-1.742-0.146c-0.292-0.048-0.489-0.322-0.441-0.614
							c0.048-0.291,0.323-0.492,0.614-0.44c2.888,0.471,5.628-0.366,8.141-2.499c9.682-8.218,14.906-34.667,14.906-55.382
							c0-23.158-4.971-75.993-5.021-76.524c-0.028-0.294,0.189-0.555,0.482-0.583c0.292-0.018,0.555,0.19,0.583,0.482
							c0.051,0.531,5.026,53.416,5.026,76.625c0,16.713-4.149,46.747-15.283,56.198
							C188.575,414.161,186.138,415.126,183.569,415.126z"/>
						<path style="fill:#253D66;" d="M252.139,366.479c-0.22,0-0.427-0.138-0.504-0.358c-14.992-42.921-35.144-65.938-35.345-66.165
							c-0.186-0.209-0.179-0.524,0.015-0.727l12.09-12.566l-15.377,4.9c-0.167,0.053-0.351,0.022-0.49-0.086
							c-0.139-0.108-0.216-0.277-0.207-0.453l3.3-59.921c0.017-0.296,0.26-0.517,0.564-0.504c0.295,0.016,0.521,0.269,0.505,0.563
							l-3.257,59.146L230.082,285c0.234-0.072,0.488,0.02,0.617,0.228c0.129,0.208,0.102,0.478-0.068,0.654l-13.217,13.739
							c2.662,3.153,21.213,26.01,35.231,66.145c0.099,0.279-0.049,0.584-0.328,0.682
							C252.257,366.469,252.198,366.479,252.139,366.479z"/>
						<path style="fill:#253D66;" d="M257.969,366.479c-0.059,0-0.117-0.01-0.176-0.03c-0.279-0.098-0.426-0.402-0.329-0.682
							c14.019-40.136,32.569-62.992,35.231-66.145l-13.217-13.739c-0.169-0.177-0.198-0.446-0.068-0.654
							c0.132-0.208,0.384-0.3,0.616-0.228l16.65,5.308l-3.258-59.146c-0.017-0.294,0.211-0.547,0.506-0.563
							c0.305-0.009,0.547,0.21,0.562,0.504l3.301,59.921c0.01,0.176-0.067,0.345-0.207,0.453c-0.138,0.107-0.324,0.139-0.489,0.086
							l-15.376-4.9l12.089,12.566c0.194,0.201,0.2,0.518,0.015,0.727c-0.201,0.228-20.358,23.264-35.344,66.165
							C258.398,366.341,258.191,366.479,257.969,366.479z"/>
						<path style="fill:#253D66;" d="M326.549,320.11c-0.038,0-0.077-0.004-0.115-0.013c-0.288-0.064-0.47-0.35-0.407-0.638
							c2.803-12.607,0.021-36.521-0.009-36.761c-0.035-0.294,0.176-0.559,0.469-0.594c0.29-0.046,0.559,0.175,0.594,0.469
							c0.028,0.241,2.831,24.336-0.009,37.117C327.017,319.941,326.795,320.11,326.549,320.11z"/>
						<path style="fill:#253D66;" d="M187.463,304.251c-0.292,0-0.53-0.234-0.535-0.525l-0.35-20.701
							c-0.004-0.296,0.23-0.539,0.526-0.544c0.316-0.012,0.539,0.23,0.544,0.525l0.35,20.701c0.004,0.295-0.23,0.539-0.526,0.544
							C187.469,304.251,187.466,304.251,187.463,304.251z"/>
					</g>
					<g>
						<path style="fill:#FFFFFF;" d="M193.019,288.186c0,0.81-0.657,1.467-1.467,1.467c-0.81,0-1.467-0.657-1.467-1.467
							c0-0.81,0.657-1.467,1.467-1.467C192.362,286.719,193.019,287.376,193.019,288.186z"/>
						<path style="fill:#FFFFFF;" d="M193.019,299.406c0,0.81-0.657,1.468-1.467,1.468c-0.81,0-1.467-0.658-1.467-1.468
							s0.657-1.467,1.467-1.467C192.362,297.939,193.019,298.596,193.019,299.406z"/>
					</g>
				</g>
				<g>
					<path style="fill:#E6885D;" d="M170.626,280.523c1.295-8.209,3.523-16.324-0.146-24.99c-6.06-14.312-6.06-27.358,1.441-27.934
						c0-3.142,2.463-6.849,5.394-6.849c0-2.639,3.422-5.29,5.474-5.29c0-8.206-2.022-32.081,1.319-32.52
						c4.542-0.598,5.861,26.366,7.913,34.864c3.818-3.275,8.695-1.234,13.562,13.327c4.287,12.825-1.707,18.245-3.605,24.4
						c-1.898,6.153-1.457,15.905-1.457,23.525C193.779,281.99,182.056,284.626,170.626,280.523z"/>
					<path style="fill:#BD663C;" d="M182.173,233.297c-0.254,0-0.495-0.027-0.72-0.083c-0.622-0.158-1.098-0.534-1.415-1.119
						c-1.998-3.688,10.064-13.293,11.446-14.376c0.163-0.128,0.399-0.101,0.526,0.063c0.127,0.162,0.099,0.398-0.064,0.526
						c-3.617,2.835-12.688,10.774-11.249,13.43c0.216,0.398,0.523,0.644,0.94,0.749c1.946,0.491,5.744-1.988,9.09-4.176
						c1.36-0.889,2.645-1.729,3.751-2.335c0.184-0.099,0.409-0.033,0.509,0.148c0.099,0.181,0.033,0.409-0.148,0.508
						c-1.081,0.593-2.354,1.425-3.701,2.306C187.854,231.085,184.471,233.297,182.173,233.297z"/>
					<path style="fill:#BD663C;" d="M189.159,220.232c-0.128,0-0.253-0.066-0.323-0.185c-1.452-2.46-5.885-4.122-5.929-4.138
						c-0.194-0.072-0.293-0.288-0.222-0.48c0.072-0.195,0.289-0.296,0.481-0.222c0.192,0.07,4.728,1.769,6.314,4.46
						c0.106,0.179,0.046,0.408-0.132,0.513C189.289,220.215,189.223,220.232,189.159,220.232z"/>
					<path style="fill:#BD663C;" d="M190.028,249.949c-0.18,0-0.34-0.13-0.37-0.314c-0.033-0.204,0.106-0.396,0.31-0.43
						c1.904-0.308,3.335-1.414,4.251-3.289c2.529-5.17,0.506-15.115-1.395-18.591c-0.1-0.181-0.033-0.409,0.149-0.508
						c0.182-0.101,0.41-0.033,0.508,0.148c2.017,3.689,4.086,13.809,1.411,19.28c-1.029,2.105-2.646,3.349-4.804,3.699
						C190.068,249.948,190.047,249.949,190.028,249.949z"/>
					<path style="fill:#BD663C;" d="M183.788,224.832c-0.096,0-0.192-0.037-0.265-0.109c-2.312-2.312-6.283-3.603-6.323-3.616
						c-0.197-0.063-0.305-0.274-0.243-0.471c0.064-0.197,0.273-0.306,0.472-0.243c0.17,0.056,4.185,1.361,6.624,3.8
						c0.146,0.146,0.146,0.383,0,0.53C183.98,224.795,183.884,224.832,183.788,224.832z"/>
					<path style="fill:#BD663C;" d="M181.254,255.907c-0.936,0-1.893-0.732-2.672-2.062c-1.104-1.886-1.641-4.887-1.641-9.174
						c0-2.313-2.846-4.461-5.524-5.305c-0.197-0.063-0.307-0.272-0.244-0.47c0.063-0.196,0.27-0.307,0.47-0.245
						c3.005,0.949,6.047,3.321,6.047,6.02c0,4.093,0.518,7.053,1.539,8.795c0.702,1.201,1.513,1.819,2.223,1.672
						c1.022-0.197,1.873-1.934,2.275-4.646l0.486-3.276l0.258,3.302c0.112,1.446,0.783,2.46,1.709,2.584
						c0.972,0.136,2.455-0.751,3.497-3.652c3.085-8.597-1.618-18.902-1.666-19.006c-0.087-0.187-0.005-0.41,0.182-0.498
						c0.187-0.088,0.41-0.005,0.497,0.182c0.201,0.433,4.88,10.691,1.692,19.575c-1.192,3.32-3.006,4.322-4.301,4.143
						c-0.839-0.113-1.523-0.695-1.938-1.587c-0.542,2.133-1.424,3.4-2.547,3.617C181.481,255.896,181.368,255.907,181.254,255.907z"
						/>
					<path style="fill:#BD663C;" d="M184.098,250.921c-0.023,0-0.048-0.002-0.072-0.006c-0.203-0.04-0.336-0.236-0.297-0.439
						c0.789-4.068-0.16-8.766-1.303-13.235c-2.442-9.549-10.411-9.275-10.486-9.268c-0.208,0.017-0.382-0.149-0.393-0.356
						c-0.01-0.207,0.149-0.382,0.356-0.392c0.084,0.003,8.659-0.299,11.248,9.83c1.165,4.555,2.13,9.351,1.314,13.563
						C184.43,250.798,184.273,250.921,184.098,250.921z"/>
				</g>
			</g>
			<path style="fill:#CC4944;" d="M222.041,227.549c0,0,22.065,70.278,34.108,128.496c10.208-40.751,23.598-88.985,29.878-129.428
				C265.199,226.617,233.299,223.921,222.041,227.549z"/>
			<g>
				<path style="fill:#E6885D;" d="M231.655,190.455c0,11.77,2.334,31.566-9.615,37.095c6.42,14.625,17.468,20.325,33.346,20.325
					c15.878,0,24.08-5.612,30.641-21.257c-4.598-2.1-11.195-10.125-9.056-36.163C264.13,190.455,241.983,190.455,231.655,190.455z"
					/>
				<path style="fill:#BD663C;" d="M231.729,195.09c0,0,10.782,19.44,22.304,19.44c11.522,0,19.26-12.47,22.703-20.681
					C268.944,193.85,241.775,195.09,231.729,195.09z"/>
				<path style="fill:#E6885D;" d="M236.024,106.05c-4.876,11.413-7.18,14.565-15.41,21.628c-5.663,4.86-2.453,9.408-5.027,16.731
					c-4.459-4.459-10.005-3.604-10.005,7.309c0,10.381,4.42,14.84,10.038,14.84c4.28,13.911,15.695,39.234,38.165,39.234
					s30.808-22.738,36.873-40.216c7.49,0.937,9.618-8.36,10.566-15.069c1.158-8.204-4.28-11.95-9.63-6.599
					c-5.568-8.546-3.209-17.311-6.778-20.88C281.249,119.46,247.974,117.999,236.024,106.05z"/>
				<g>
					<path style="fill:#BD663C;" d="M253.877,147.652c-1.77,4.581-3.739,9.297-4.473,14.181c-0.315,2.099-0.617,5.437,2.046,6.101
						c1.978,0.492,4.227-0.419,6.076-1.02c-1.842,0.999-4.109,2.136-6.277,1.745c-3.098-0.558-3.273-4.067-2.952-6.587
						C248.937,157.075,251.199,151.895,253.877,147.652z"/>
					<path style="fill:#2D3440;" d="M270.43,147.652c0,1.576-1.277,2.854-2.854,2.854c-1.575,0-2.854-1.278-2.854-2.854
						c0-1.577,1.279-2.854,2.854-2.854C269.153,144.798,270.43,146.076,270.43,147.652z"/>
					<path style="fill:#BD663C;" d="M262.625,143.164c2.341-3.309,7.387-2.623,9.9,0c-1.527-0.495-2.972-1.091-4.602-1.173
						C266.101,141.898,264.258,142.357,262.625,143.164z"/>
					<path style="fill:#2D3440;" d="M258.694,137.382c1.196-3.54,5.184-5.668,8.741-5.621c3.35,0.044,6.273,2.556,7.365,5.621
						c-1.215-0.476-2.343-1.142-3.556-1.629c-1.404-0.564-2.884-0.782-4.385-0.779C264.152,134.762,261.129,136.374,258.694,137.382
						z"/>
					<path style="fill:#2D3440;" d="M236.024,147.652c0,1.576,1.278,2.854,2.854,2.854c1.576,0,2.854-1.278,2.854-2.854
						c0-1.577-1.278-2.854-2.854-2.854C237.302,144.798,236.024,146.076,236.024,147.652z"/>
					<path style="fill:#BD663C;" d="M243.827,143.164c-1.597-0.791-3.445-1.281-5.236-1.178c-1.652,0.096-3.108,0.672-4.662,1.178
						C236.441,140.54,241.488,139.856,243.827,143.164z"/>
					<path style="fill:#2D3440;" d="M247.76,137.382c-2.428-1.004-5.46-2.621-8.167-2.408c-1.499-0.003-2.98,0.215-4.384,0.779
						c-1.212,0.487-2.34,1.152-3.554,1.629c1.107-3.118,3.781-5.186,7.023-5.603C242.308,131.413,246.566,133.849,247.76,137.382z"
						/>
					<path style="fill:#BD663C;" d="M214.952,148.811c-6.125-6.125-7.089,9.21,0,13.108
						C214.817,158.425,214.507,152.824,214.952,148.811z"/>
					<path style="fill:#BD663C;" d="M291.595,150.506c2.077-3.747,5.026-4.224,5.648-1.394c0.6,2.722-0.031,10.572-6.585,11.913
						C291.461,157.149,292.263,153.092,291.595,150.506z"/>
					<path style="fill:#BD663C;" d="M244.716,179.167c2.563,1.346,5.517,2.316,8.429,2.337c1.597,0.012,3.119-0.229,4.659-0.646
						c1.542-0.418,2.95-1.146,4.444-1.691c-2.245,2.717-5.511,4.434-9.082,4.33C250.04,183.405,246.44,181.907,244.716,179.167z"/>
				</g>
			</g>
			<g>
				<g>
					<path style="fill:#294470;" d="M220.257,77.497c-12.841-5.462-27.466-11.645-30.557-14.736
						c13.792-6.063,50.8-22.677,63.609-26.6c14.948,4.637,46.797,18.127,66.462,26.244c-11.988,8.308-23.54,13.063-30.675,15.092
						C275.901,77.497,225.964,77.497,220.257,77.497z"/>
					<path style="fill:#325288;" d="M213.808,93.553c2.882-15.812,2.615-22.232,1.144-27.582c19.93-2.497,45.16-8.204,82.303-1.07
						c-1.736,13.198-3.478,19.751,0.167,27.272C285.532,92.173,252.301,87.962,213.808,93.553z"/>
					<path style="fill:#1E3152;" d="M214.951,66.506c-0.244,0-0.465-0.167-0.521-0.416c-0.066-0.288,0.114-0.575,0.402-0.641
						c0.452-0.103,45.607-10.217,82.55-1.068c0.288,0.071,0.461,0.361,0.391,0.648c-0.071,0.286-0.359,0.459-0.648,0.391
						c-36.7-9.089-81.604,0.97-82.054,1.072C215.03,66.502,214.991,66.506,214.951,66.506z"/>
				</g>
				<g>
					<path style="fill:#8EABDB;" d="M279.187,79.704c-2.931,0-6.7,20.154,0,30.675c2.638-2.637,3.848-4.28,5.63-4.28
						c-1.428-3.924-3.032-14.624-3.032-18.904C281.785,82.914,282.296,79.704,279.187,79.704z"/>
					<path style="fill:#8EABDB;" d="M279.187,81.844c-0.295,0-0.535-0.239-0.535-0.535V45.807c0-0.295,0.24-0.535,0.535-0.535
						c0.297,0,0.535,0.239,0.535,0.535v35.502C279.722,81.604,279.484,81.844,279.187,81.844z"/>
					<path style="fill:#6E85AB;" d="M282.767,104.582c-0.109,0-0.211-0.067-0.251-0.175c-3.858-10.506-2.663-20.623-2.65-20.724
						c0.02-0.146,0.15-0.254,0.299-0.232c0.147,0.018,0.251,0.151,0.232,0.298c-0.013,0.1-1.189,10.093,2.621,20.474
						c0.05,0.138-0.022,0.292-0.159,0.343C282.828,104.577,282.796,104.582,282.767,104.582z"/>
					<path style="fill:#6E85AB;" d="M280.131,107.659c-0.11,0-0.215-0.071-0.253-0.183c-3.417-10.24-1.676-23.661-1.657-23.795
						c0.019-0.146,0.145-0.261,0.301-0.23c0.146,0.02,0.249,0.155,0.23,0.301c-0.02,0.133-1.743,13.434,1.634,23.555
						c0.046,0.14-0.029,0.291-0.169,0.339C280.188,107.655,280.161,107.659,280.131,107.659z"/>
				</g>
			</g>
			<g>
				<path style="fill:#294470;" d="M336.029,405.275c-24.397-4.006-79.746-12.659-89.778-10.447
					c-1.641,5.482-2.541,10.708-5.082,18.198c12.484,2.141,57.56,7.135,66.832,10.345c3.211-7.848,6.065-9.274,7.136-10.345
					c4.18,4.182,11.862,9.361,20.113,14.285C334.955,420.208,335.011,412.599,336.029,405.275z"/>
				<path style="fill:#294470;" d="M327.442,312.708c8.828,0,10.834,0.936,13.108,3.21c-3.479,8.828-13.004,41.954-15.999,51.741
					c-5.436-0.647-6.201-0.699-12.084-1.507C315.136,354.976,326.104,316.721,327.442,312.708z"/>
				<g>
					
						<rect x="221.688" y="311.276" transform="matrix(0.2382 -0.9712 0.9712 0.2382 -129.1805 541.7524)" style="fill:#F5EDD3;" width="118.126" height="83.892"/>
					<g>
						<path style="fill:#C7BB95;" d="M322.045,331.572c-0.042,0-0.086-0.006-0.128-0.016l-61.868-15.175
							c-0.287-0.069-0.462-0.359-0.393-0.647c0.07-0.287,0.361-0.463,0.647-0.392l61.869,15.174c0.286,0.07,0.462,0.359,0.391,0.647
							C322.505,331.409,322.286,331.572,322.045,331.572z"/>
						<path style="fill:#C7BB95;" d="M320.515,337.095c-0.041,0-0.085-0.005-0.127-0.016l-61.869-15.174
							c-0.286-0.07-0.462-0.36-0.392-0.647c0.071-0.287,0.362-0.462,0.646-0.392l61.869,15.174c0.286,0.07,0.462,0.359,0.391,0.647
							C320.975,336.932,320.756,337.095,320.515,337.095z"/>
						<path style="fill:#C7BB95;" d="M318.999,343.182c-0.042,0-0.084-0.005-0.128-0.016l-61.866-15.174
							c-0.288-0.07-0.463-0.359-0.393-0.647c0.071-0.287,0.364-0.46,0.648-0.392l61.866,15.174c0.289,0.07,0.464,0.359,0.394,0.647
							C319.458,343.019,319.241,343.182,318.999,343.182z"/>
						<path style="fill:#C7BB95;" d="M316.962,349.833c-0.042,0-0.086-0.005-0.127-0.016l-61.869-15.174
							c-0.286-0.07-0.462-0.36-0.392-0.647c0.07-0.287,0.362-0.46,0.646-0.392l61.869,15.174c0.286,0.07,0.462,0.359,0.391,0.647
							C317.422,349.67,317.203,349.833,316.962,349.833z"/>
						<path style="fill:#C7BB95;" d="M315.103,356.999c-0.042,0-0.086-0.005-0.128-0.016l-61.869-15.174
							c-0.286-0.07-0.462-0.359-0.392-0.647c0.071-0.288,0.362-0.461,0.647-0.393l61.869,15.175
							c0.286,0.069,0.462,0.359,0.391,0.647C315.562,356.836,315.343,356.999,315.103,356.999z"/>
					</g>
					<path style="fill:#C7BB95;" d="M313.129,397.298c-17.064-7.221-59.505-23.546-82.027-17.741
						c5.384,3.329,13.081,3.865,17.436,5.112c4.355,1.248,40.634,11.971,60.928,27.564L313.129,397.298z"/>
					<g>
						<polygon style="fill:#CC4944;" points="310.776,339.212 308.09,335.715 303.883,337.52 313.006,300.32 319.901,302.011 						
							"/>
						<polygon style="fill:#E6726E;" points="312.469,310.08 315.004,308.455 316.386,311.129 319.393,310.99 319.253,313.997 
							321.928,315.379 320.302,317.915 321.928,320.45 319.253,321.832 319.393,324.839 316.386,324.699 315.004,327.374 
							312.469,325.749 309.934,327.374 308.55,324.699 305.543,324.839 305.683,321.832 303.008,320.45 304.634,317.915 
							303.008,315.379 305.683,313.997 305.543,310.99 308.55,311.129 309.934,308.455 						"/>
						<path style="fill:#F5EDD3;" d="M317.41,317.913c0,2.729-2.213,4.942-4.942,4.942s-4.94-2.213-4.94-4.942
							c0-2.728,2.211-4.94,4.94-4.94S317.41,315.184,317.41,317.913z"/>
						<path style="fill:#CC4944;" d="M315.842,317.913c0,1.864-1.511,3.376-3.375,3.376c-1.864,0-3.375-1.512-3.375-3.376
							c0-1.863,1.511-3.374,3.375-3.374C314.332,314.539,315.842,316.049,315.842,317.913z"/>
					</g>
				</g>
				<g>
					<g>
						<path style="fill:#E6885D;" d="M272.509,359.08c-5.432-5.432-3.193-15.151-11.396-18.188
							c-8.205-3.035-26.039-9.813-26.039-2.679c-4.546-0.856-10.102-2.372-10.102,9.102c-2.592,1.596-2.904,7.345-2.023,10.461
							c-2.185,2.186-1.443,10.256,0.624,11.326c0,5.35,0.892,10.789,16.141,11.948c15.737,1.196,23.359,4.279,31.385,6.954
							C276.716,382.387,276.577,367.193,272.509,359.08z"/>
						<path style="fill:#BD663C;" d="M252.139,343.939c-0.036,0-0.072-0.007-0.109-0.02c-9.505-3.433-16.962-5.376-17.037-5.396
							c-0.172-0.044-0.275-0.22-0.23-0.392c0.044-0.171,0.216-0.276,0.391-0.229c0.075,0.018,7.561,1.97,17.096,5.413
							c0.166,0.061,0.253,0.244,0.192,0.411C252.395,343.857,252.27,343.939,252.139,343.939z"/>
					</g>
					<path style="fill:#325288;" d="M272.509,359.08c-0.813,13.459-2.059,16.268-4.57,27.855
						c14.214,6.055,80.564,41.822,95.009,39.147c14.446-2.676,18.191-15.516,18.191-24.076c0-8.561,0.719-19.177-5.545-25.441
						C369.331,370.302,311.37,368.71,272.509,359.08z"/>
					<path style="fill:#253D66;" d="M367.385,374.053c-0.034,0-0.067-0.004-0.101-0.01c-12.504-2.382-46.489-6.284-46.83-6.323
						c-0.294-0.033-0.506-0.299-0.472-0.593c0.033-0.293,0.305-0.506,0.593-0.471c0.343,0.039,34.365,3.946,46.909,6.335
						c0.291,0.056,0.481,0.336,0.425,0.626C367.862,373.875,367.638,374.053,367.385,374.053z"/>
				</g>
			</g>
		</g>
	</g>
</g>
</svg>
