<svg height="653.626" viewBox="0 0 529.919 653.626" width="529.919" xmlns="http://www.w3.org/2000/svg"><path d="m332.18 99.451h97.92s-8.652-15.756-33.865-13.4c-24.066 2.189-25.317-7.759-37.528-8.935s-22.447 8.054-26.527 22.335z" fill="#e0e0e0" transform="translate(42.206 -14.229)"/><path d="m161.4 266.341s-9.814 5.3 4.468 25.793 23.574 30.32 23.574 30.32 2.71 4.84-1.489 6.225-13.894 1.191-15.086 6.716c-1.236 5.748 3.455 10.424 12.122 13.775s27.4 11.586 29.084 12.331 3.529 2.9.819 4.3-23.723 6.567-20.685 16.381 28.772 15.369 31.571 16.024 3.589 1.7 3.574 3.187-7.238 2.561-13.165 4.274-12.48 4.751-10.246 10.276 18.407 15.547 54.118 14.133l16.5-1.727 7.029-15.116c13.06-33.254 8.935-51.825 4.468-55.756s-9.5 1.281-13.06 6.314-6.955 11.5-8.369 11.02-2.13-1.564-1.832-4.468 3.529-28.98-4.751-35.086-20.075 12.033-22.338 14.133-3.649-.372-3.8-2.189-1.713-22.2-2.085-31.527-3.187-15.25-9.01-15.964-8.608 8.518-11.3 12.033-6.374-.64-6.374-.64-6.24-12-20.849-32.227-23.083-12.39-23.083-12.39" fill="#ebebeb" transform="translate(-42.951 77.736)"/><path d="m272.673 425.647c-10.707-14.892-29.278-41.7-45.347-64.617s-30.618-43.649-41.251-58.6c-5.316-7.446-9.605-13.492-12.6-17.677l-3.425-4.825-.879-1.251c-.194-.283-.283-.447-.283-.447s.119.134.328.417l.923 1.221 3.5 4.766c2.978 4.125 7.446 10.142 12.733 17.588 10.707 14.892 25.317 35.592 41.37 58.511s34.594 49.755 45.227 64.691" fill="#e0e0e0" transform="translate(-37.678 84.209)"/><path d="m177.12 312.83a6.3 6.3 0 0 1 1.191.164c.759.134 1.847.357 3.2.655 2.7.581 6.389 1.489 10.424 2.561l10.427 2.79 3.157.834a4.929 4.929 0 0 1 1.147.343 5.406 5.406 0 0 1 -1.191-.149c-.759-.134-1.847-.357-3.2-.67-2.681-.611-6.374-1.489-10.425-2.636l-10.424-2.71-3.157-.819a4.468 4.468 0 0 1 -1.147-.357z" fill="#e0e0e0" transform="translate(-33.652 101.136)"/><path d="m197.623 328.276c-.149 0 1.385-7.744 3.41-17.215s3.8-17.141 3.932-17.111-1.385 7.729-3.425 17.215-3.783 17.111-3.917 17.111z" fill="#e0e0e0" transform="translate(-23.626 91.9)"/><path d="m213.12 350.517a4.99 4.99 0 0 1 .521-1.1l1.579-2.978c1.325-2.472 3.157-5.957 5.019-9.769s3.47-7.446 4.587-9.963l1.34-3.053a4.215 4.215 0 0 1 .551-1.1 6.675 6.675 0 0 1 -.357 1.176c-.268.745-.67 1.8-1.191 3.113-1.042 2.621-2.576 6.2-4.468 10.067s-3.768 7.267-5.168 9.71c-.715 1.206-1.311 2.189-1.728 2.844a6.614 6.614 0 0 1 -.685 1.057z" fill="#e0e0e0" transform="translate(-16.04 105.891)"/><path d="m193.76 342.011a3.756 3.756 0 0 1 1.117-.134l3.083-.179c2.591-.134 6.18-.268 10.142-.4s7.55-.208 10.156-.238h3.083a6.55 6.55 0 0 1 1.132 0 4.2 4.2 0 0 1 -1.132.149l-3.068.179c-2.606.119-6.2.268-10.156.387s-7.55.208-10.156.238h-3.068a4.851 4.851 0 0 1 -1.132 0z" fill="#e0e0e0" transform="translate(-25.511 114.934)"/><path d="m204.71 365.518a6.832 6.832 0 0 1 1.489-.164l3.946-.238c3.321-.179 7.923-.4 13-.611s9.68-.357 13-.447l3.946-.089a9.36 9.36 0 0 1 1.489 0 9.157 9.157 0 0 1 -1.489.164l-3.946.238c-3.321.179-7.923.4-13 .611s-9.68.357-13 .447l-3.946.089a9.067 9.067 0 0 1 -1.489 0z" fill="#e0e0e0" transform="translate(-20.154 126.14)"/><path d="m228.81 375.59a9.192 9.192 0 0 1 .625-1.415l1.876-3.8c1.579-3.2 3.723-7.625 5.957-12.584s4.17-9.486 5.54-12.792l1.623-3.9a10.285 10.285 0 0 1 .64-1.4 7.711 7.711 0 0 1 -.462 1.489c-.328.953-.819 2.308-1.489 3.961-1.281 3.336-3.157 7.908-5.406 12.867s-4.468 9.382-6.121 12.539c-.834 1.579-1.489 2.859-2.025 3.723a10.135 10.135 0 0 1 -.759 1.31z" fill="#e0e0e0" transform="translate(-8.364 114.281)"/><path d="m326.415 258.628c-17.722-19.881-16.024-48.578-9.308-73.135 1.117-4.11 1.7-8.578 4.468-11.735s8.012-4.557 11.3-1.936c2.725 2.174 3.217 6.061 4.229 9.427a24.855 24.855 0 0 0 7.446 11.556c2.308 2 5.361 3.589 8.31 2.785 4.036-1.132 5.614-5.957 6.567-10.082q2.636-11.512 5.3-23.023a39.971 39.971 0 0 1 4.125-11.914c2.2-3.6 5.957-6.553 10.067-6.716s8.474 3.232 8.34 7.446a39.157 39.157 0 0 1 -1.087 5.153 4.468 4.468 0 0 0 1.564 4.661c1.489.879 3.44.1 4.959-.819 5.227-3.142 9.382-7.8 13.328-12.495s7.848-9.5 12.777-13.12 11.095-5.957 17.066-4.885 11.378 6.2 11.5 12.316-4.646 11.244-9.442 15.056a94.372 94.372 0 0 1 -23.351 13.686 7.714 7.714 0 0 0 -4.006 2.681c-1.489 2.532.4 5.868 2.889 7.446 2.83 1.742 6.225 2.219 9.352 3.351s6.255 3.381 6.746 6.687c.685 4.6-3.872 8.176-8.012 10.246a81.059 81.059 0 0 1 -26.419 7.893c-3.291.387-6.7.611-9.65 2.144s-5.287 4.9-4.468 8.146 4.349 5.078 7.655 5.227 6.553-.879 9.844-1.3c6.15-.8 13.4 1.311 15.815 7.059a13.4 13.4 0 0 1 -1.34 11.914 30.738 30.738 0 0 1 -8.637 8.682 81.311 81.311 0 0 1 -39.375 15.726c-14.177 1.489-26.627-.208-38.526-8.057" fill="#f5f5f5" transform="translate(32.513 11.465)"/><path d="m324.22 259.188c3.217-9.591-.149-4.78 6.478-16.381a378.718 378.718 0 0 1 24.021-36.218q3.425-4.646 6.776-9.159c2.234-2.978 4.468-5.957 6.791-8.771a191.4 191.4 0 0 1 14.4-15.19c4.81-4.617 9.546-8.816 14.014-12.718s8.7-7.446 12.688-10.5a151.243 151.243 0 0 1 19.911-13.06c2.457-1.355 4.468-2.338 5.733-2.978l1.489-.73.521-.223a2.876 2.876 0 0 1 -.491.3l-1.489.8c-1.31.7-3.232 1.728-5.659 3.112a157.639 157.639 0 0 0 -19.687 13.269c-3.961 3.083-8.161 6.642-12.6 10.544s-9.144 8.131-13.939 12.748a195.424 195.424 0 0 0 -14.311 15.16c-2.323 2.77-4.468 5.734-6.746 8.742l-6.776 9.159a389.727 389.727 0 0 0 -24.006 36.054c-6.642 11.571-3.306 6.687-6.582 16.218" fill="#e0e0e0" transform="translate(38.312 13.288)"/><path d="m354.015 185.807a9.335 9.335 0 0 1 0-1.847c0-1.191.194-2.978.387-5.019.387-4.244 1.132-10.067 1.966-16.486s1.489-12.241 1.8-16.471c.164-2.115.283-3.812.357-5a8.052 8.052 0 0 1 .194-1.832 9.074 9.074 0 0 1 .1 1.847c0 1.176 0 2.978-.1 5.019-.179 4.259-.745 10.112-1.594 16.545s-1.593 12.063-2.174 16.381c-.253 1.981-.462 3.649-.625 4.989a8.6 8.6 0 0 1 -.313 1.876z" fill="#e0e0e0" transform="translate(52.866 16.169)"/><path d="m409.145 173.454a10.526 10.526 0 0 1 -2.159-.238c-1.385-.208-3.4-.506-5.882-.8-4.959-.625-11.914-1.236-19.479-1.593s-14.55-.357-19.568-.223c-2.5 0-4.468.149-5.957.208a13.077 13.077 0 0 1 -2.189 0 11.826 11.826 0 0 1 2.174-.328c1.4-.149 3.425-.328 5.957-.447 5.019-.283 11.914-.357 19.628 0a195.111 195.111 0 0 1 19.524 1.832c2.472.372 4.468.759 5.853 1.042a11.3 11.3 0 0 1 2.098.547z" fill="#e0e0e0" transform="translate(52.837 31.158)"/><path d="m332.639 230.51a2.323 2.323 0 0 1 -.209-.73c-.119-.581-.268-1.281-.462-2.13-.372-1.847-.864-4.468-1.415-7.863-1.117-6.657-2.368-15.9-3.619-26.136s-2.413-19.479-3.38-26.151c-.477-3.246-.879-5.957-1.177-7.893-.119-.864-.223-1.579-.313-2.159a4.121 4.121 0 0 1 0-.759 2.8 2.8 0 0 1 .223.73l.447 2.13q.581 2.77 1.415 7.863c1.117 6.657 2.368 15.9 3.619 26.136s2.413 19.479 3.38 26.151c.491 3.246.879 5.957 1.177 7.908.134.849.223 1.564.313 2.144a2.981 2.981 0 0 1 .001.759z" fill="#e0e0e0" transform="translate(37.249 24.75)"/><path d="m404.787 202.238a2.5 2.5 0 0 1 -.759.119l-2.2.209-8.1.655c-6.836.551-16.277 1.489-26.7 2.413s-19.9 1.772-26.806 2.189c-3.425.208-6.2.342-8.116.4h-2.2a2.621 2.621 0 0 1 -.774 0 3.051 3.051 0 0 1 .76-.119l2.2-.208 8.1-.655c6.836-.551 16.277-1.489 26.7-2.413s19.881-1.772 26.806-2.174c3.44-.208 6.21-.357 8.131-.417h2.2a3.116 3.116 0 0 1 .76 0z" fill="#e0e0e0" transform="translate(40.709 47.021)"/><path d="m447.381 304a3.2 3.2 0 0 1 -.238.7l-.819 1.981c-.76 1.787-1.832 4.3-3.172 7.446l-11.482 26.552-.074.149h-.164l-36.069 5.957-12.092 1.981-.551.089.134-.536c2.978-11.6 5.644-22.338 7.952-31.348l.164.343-21.192-9.471-5.853-2.666-1.489-.715a2.667 2.667 0 0 1 -.506-.283l.536.194 1.564.64 5.957 2.517 21.3 9.233.238.1v.238c-2.264 9.084-4.929 19.777-7.818 31.393l-.417-.447 12.092-2 36.084-5.867-.253.194 11.72-26.434c1.415-3.157 2.547-5.659 3.351-7.446l.894-1.951a4.933 4.933 0 0 1 .209-.551z" fill="#e0e0e0" transform="translate(56.76 96.816)"/><path d="m381.473 331.558-1 2.591 1.579 2.293-2.77-.134-1.683 2.2-.73-2.681-2.621-.923 2.323-1.519.074-2.77 2.159 1.742z" fill="#e0e0e0" transform="translate(62.787 109.839)"/><path d="m363.649 303.157-.491 1.3.774 1.132-1.37-.075-.834 1.1-.372-1.325-1.3-.462 1.147-.76.045-1.385 1.072.864z" fill="#e0e0e0" transform="translate(55.845 96.171)"/><path d="m410.619 327.712-.491 1.3.774 1.132-1.37-.06-.834 1.1-.372-1.34-1.3-.447 1.147-.76.03-1.385 1.087.864z" fill="#e0e0e0" transform="translate(78.824 108.191)"/><path d="m383.509 312.127-.491 1.281.789 1.147-1.385-.074-.834 1.1-.357-1.34-1.31-.447 1.162-.76.03-1.385 1.072.864z" fill="#e0e0e0" transform="translate(65.561 100.559)"/><path d="m421.619 303.282-.491 1.3.789 1.132-1.385-.06-.834 1.1-.357-1.34-1.31-.462 1.162-.745.03-1.385 1.072.864z" fill="#e0e0e0" transform="translate(84.205 96.239)"/><path d="m117.34 381.808h77.975s-6.9-12.554-26.97-10.722c-19.166 1.742-20.134-6.18-29.889-7.148s-17.856 6.493-21.116 17.87z" fill="#e0e0e0" transform="translate(-62.897 126.098)"/><path d="m127.74 175.683h77.96s-6.9-12.539-26.97-10.722c-19.151 1.757-20.134-6.165-29.874-7.133s-17.87 6.493-21.116 17.855z" fill="#f5f5f5" transform="translate(-57.809 25.265)"/><path d="m393.62 211.047h64.036s-5.659-10.305-22.145-8.816c-15.756 1.489-16.56-5.063-24.557-5.868s-14.668 5.346-17.334 14.684z" fill="#f5f5f5" transform="translate(72.263 44.124)"/><path d="m368.7 352.942c3.187-23.991-13.686-43.8-34.773-55.7s-45.555-15.92-68.846-22.5c-21.969-6.242-43.816-15.352-60.081-31.376s-26.031-40.1-20.194-62.175c1.489-5.54 4.1-11.11 8.861-14.311s12.018-3.112 15.577 1.385c7.565 9.591-7.178 26.806 2.055 34.758 2.115 1.847 5.034 2.517 7.223 4.259 5.823 4.661 3.946 13.7 4.765 21.117 1.623 14.669 15.384 24.855 28.891 30.8 18.094 7.952 37.692 11.69 56.873 16.381s38.556 10.663 54.535 22.338 29.874 29.784 29.784 49.576c0 5.525-.73 12.316-4.2 16.6s-7.878 5.2-12.882 2.844-8.489-5.957-7.565-13.969" fill="#54b692" transform="translate(-30.724 28.648)"/><path d="m368.7 352.942c3.187-23.991-13.686-43.8-34.773-55.7s-45.555-15.92-68.846-22.5c-21.969-6.242-43.816-15.352-60.081-31.376s-26.031-40.1-20.194-62.175c1.489-5.54 4.1-11.11 8.861-14.311s12.018-3.112 15.577 1.385c7.565 9.591-7.178 26.806 2.055 34.758 2.115 1.847 5.034 2.517 7.223 4.259 5.823 4.661 3.946 13.7 4.765 21.117 1.623 14.669 15.384 24.855 28.891 30.8 18.094 7.952 37.692 11.69 56.873 16.381s38.556 10.663 54.535 22.338 29.874 29.784 29.784 49.576c0 5.525-.73 12.316-4.2 16.6s-7.878 5.2-12.882 2.844-8.489-5.957-7.565-13.969" fill="#fff" opacity=".8" transform="translate(-30.724 28.649)"/><path d="m239.25 222.939c-.759-8.935 5.868-16.635 13.4-20.775s16.173-5.838 23.932-9.516c19.285-9.144 31.542-30.663 32.45-52.718s-8.665-44.13-23.617-60.33c-6.091-6.582-13.567-13.492-13.656-22.472-.089-9.382 8.935-16.769 18.079-16.649s17.454 6.21 22.889 13.85 8.429 16.709 11.363 25.644c-2.085-3.753 2.189-8.384 6.329-7.982s7.446 3.842 9.933 7.267a77.588 77.588 0 0 1 14.892 51.9 73.12 73.12 0 0 1 -23.083 47.566c-14.7 13.4-34.133 19.673-52.986 25.629l-39.33 12.405" fill="#54b692" transform="translate(-3.287 -32.102)"/><path d="m239.25 222.939c-.759-8.935 5.868-16.635 13.4-20.775s16.173-5.838 23.932-9.516c19.285-9.144 31.542-30.663 32.45-52.718s-8.665-44.13-23.617-60.33c-6.091-6.582-13.567-13.492-13.656-22.472-.089-9.382 8.935-16.769 18.079-16.649s17.454 6.21 22.889 13.85 8.429 16.709 11.363 25.644c-2.085-3.753 2.189-8.384 6.329-7.982s7.446 3.842 9.933 7.267a77.588 77.588 0 0 1 14.892 51.9 73.12 73.12 0 0 1 -23.083 47.566c-14.7 13.4-34.133 19.673-52.986 25.629l-39.33 12.405" fill="#fff" opacity=".8" transform="translate(-3.287 -32.102)"/><path d="m233.581 37.728a8.369 8.369 0 1 0 1.37-.432" fill="#54b692" transform="translate(-8.564 -33.758)"/><path d="m233.581 37.728a8.369 8.369 0 1 0 1.37-.432" fill="#fff" opacity=".8" transform="translate(-8.564 -33.758)"/><path d="m273.637 478.394c-4.825-9.993-.611-22.457 7.074-30.469s18.168-12.584 28.3-17.052c22.428-9.888 46.166-21.653 57.558-43.336 3.842-7.312 6.031-15.354 8.191-23.336 4.185-15.428 8.116-32.956-.3-46.553-2.427-3.917-6.061-7.446-10.588-8.191-5.168-.923-10.425 1.921-13.641 6.076a30.128 30.128 0 0 0 -5.2 14.639c-1.251 9.873-.209 19.926-1.251 29.784s-4.631 20.387-12.733 26.017c-9.933 6.925-24.1 5.376-33.731 12.688-7.789 5.957-10.752 16.143-16.828 23.827-5.123 6.418-12.286 10.8-18.839 15.741s-12.9 10.961-15.13 18.868a22.338 22.338 0 0 0 31.11 26.255" fill="#54b692" transform="translate(-.116 99.401)"/><path d="m273.637 478.394c-4.825-9.993-.611-22.457 7.074-30.469s18.168-12.584 28.3-17.052c22.428-9.888 46.166-21.653 57.558-43.336 3.842-7.312 6.031-15.354 8.191-23.336 4.185-15.428 8.116-32.956-.3-46.553-2.427-3.917-6.061-7.446-10.588-8.191-5.168-.923-10.425 1.921-13.641 6.076a30.128 30.128 0 0 0 -5.2 14.639c-1.251 9.873-.209 19.926-1.251 29.784s-4.631 20.387-12.733 26.017c-9.933 6.925-24.1 5.376-33.731 12.688-7.789 5.957-10.752 16.143-16.828 23.827-5.123 6.418-12.286 10.8-18.839 15.741s-12.9 10.961-15.13 18.868a22.338 22.338 0 0 0 31.11 26.255" fill="#fff" opacity=".8" transform="translate(-.117 99.401)"/><path d="m168.45 107.834a31.05 31.05 0 0 1 .894-50.5c4.587-3.142 10.008-5.078 14.088-8.935 3.619-3.366 5.957-8.027 10.022-10.856a14.594 14.594 0 0 1 22.16 16.888c-1.862 5.227-6.553 9.054-8.518 14.237-2.115 5.6-.745 11.914-1.489 17.781a24.557 24.557 0 0 1 -32.882 19.777" fill="#54b692" transform="translate(-44.029 -34.854)"/><path d="m168.45 107.834a31.05 31.05 0 0 1 .894-50.5c4.587-3.142 10.008-5.078 14.088-8.935 3.619-3.366 5.957-8.027 10.022-10.856a14.594 14.594 0 0 1 22.16 16.888c-1.862 5.227-6.553 9.054-8.518 14.237-2.115 5.6-.745 11.914-1.489 17.781a24.557 24.557 0 0 1 -32.882 19.777" fill="#fff" opacity=".8" transform="translate(-44.029 -34.854)"/><path d="m164.71 62.42h18.3v37.722a8.057 8.057 0 0 1 -8.057 8.057h-2.174a8.057 8.057 0 0 1 -8.057-8.057v-37.722z" fill="#54b692" transform="translate(-39.724 -21.368)"/><path d="m164.71 67.933 9.144-16.783 9.159 16.783z" fill="#ffbe9d" transform="translate(-39.724 -26.882)"/><path d="m168.42 57.792s2.785 4.185 7.252 0l-3.619-6.642z" fill="#54b692" transform="translate(-37.909 -26.882)"/><path d="m183.28 86.658a58.078 58.078 0 0 1 -9.308.372 57.855 57.855 0 0 1 -9.293-.372 57.86 57.86 0 0 1 9.293-.372 58.081 58.081 0 0 1 9.308.372z" fill="#263238" transform="translate(-39.738 -9.716)"/><path d="m182.988 84.762a55.712 55.712 0 0 1 -9.114.372 55.71 55.71 0 0 1 -9.114-.372 58.974 58.974 0 0 1 9.114-.357 58.974 58.974 0 0 1 9.114.357z" fill="#263238" transform="translate(-39.699 -10.634)"/><path d="m168.442 62.6c.194 0 .372 7.3.372 16.307s-.179 16.381-.372 16.381-.372-7.312-.372-16.381.164-16.307.372-16.307z" fill="#fafafa" transform="translate(-38.08 -21.28)"/><path d="m173.412 62.6c.208 0 .372 7.3.372 16.307s-.164 16.381-.372 16.381-.372-7.312-.372-16.381.16-16.307.372-16.307z" fill="#fafafa" transform="translate(-35.648 -21.28)"/><path d="m293.74 408.72 83.143 3.559 2.01 4.84-54.505 88.459-98.378-2.878z" fill="#263238" transform="translate(-9.734 148.047)"/><path d="m223.51 490.535 98.958 5.659 51.706-80.224-36.307 2.949-91.867 32.345z" fill="#e0e0e0" transform="translate(-10.957 151.594)"/><path d="m214.946 489.04 90.842 1.489c-3.768-11.631 5.123-28 17.349-33.507 8.1-3.649 23.336-8.384 31.2-12.42 14.892-7.669 28.444-22.174 27.268-34.639l-37.349-1.236-47.656-1.847c-3.991 11.824-12.509 19.553-25.466 24.215-11.586 4.17-24.781 4.155-36.1 8.935-18.2 7.625-26.94 32.331-20.164 49.055" fill="#ebebeb" transform="translate(-16.302 147.147)"/><path d="m214.948 489.177s-.089-.194-.223-.6l-.625-1.742a21.162 21.162 0 0 1 -.774-2.978 30.245 30.245 0 0 1 -.625-4.14 42.534 42.534 0 0 1 .715-11.556 43.188 43.188 0 0 1 5.838-14.416 35.076 35.076 0 0 1 2.606-3.663c.491-.581.968-1.221 1.489-1.787l1.683-1.713a15.711 15.711 0 0 1 1.817-1.623c.64-.521 1.266-1.072 1.951-1.564a33.417 33.417 0 0 1 4.468-2.651c6.3-3.172 13.82-4.468 21.653-5.957 3.932-.715 7.982-1.489 12.033-2.576a56.283 56.283 0 0 0 11.988-4.825 39.573 39.573 0 0 0 5.585-3.663 33.538 33.538 0 0 0 4.959-4.691 35.74 35.74 0 0 0 6.91-12.182l.089-.253h.253l39.688 1.489c13.775.536 28.027.908 42.621 1.4l2.651.089h.328v.328a20.283 20.283 0 0 1 -1.191 8.4 31.91 31.91 0 0 1 -1.668 3.872 37.441 37.441 0 0 1 -2.174 3.574 55.3 55.3 0 0 1 -11.258 11.914 66.792 66.792 0 0 1 -13.6 8.384c-4.8 2.159-9.65 3.917-14.4 5.674s-9.457 3.425-13.909 5.361a27.789 27.789 0 0 0 -6.121 3.723c-.968.685-1.772 1.564-2.651 2.323a16.341 16.341 0 0 0 -2.338 2.621 33.745 33.745 0 0 0 -6.359 11.914 22.19 22.19 0 0 0 -.223 12.718l.134.4h-.417l-66.106-1.162-18.332-.372-4.8-.134h4.81l18.332.208 66.091.923-.283.387a22.636 22.636 0 0 1 .194-13.075 34.029 34.029 0 0 1 6.448-12.182c.7-.953 1.578-1.772 2.368-2.666a16.7 16.7 0 0 1 2.71-2.4 27.52 27.52 0 0 1 6.255-3.8c4.468-1.966 9.2-3.648 13.954-5.406s9.591-3.529 14.341-5.674a65.316 65.316 0 0 0 13.4-8.31 54.4 54.4 0 0 0 11.109-11.735 40.093 40.093 0 0 0 2.159-3.455 31.267 31.267 0 0 0 1.623-3.768 19.674 19.674 0 0 0 1.162-8.086l.357.328-2.666-.074c-14.594-.491-28.846-.879-42.607-1.489l-39.7-1.489.343-.238a36.755 36.755 0 0 1 -7.059 12.405 33.962 33.962 0 0 1 -5.063 4.766 38.715 38.715 0 0 1 -5.684 3.717 55.891 55.891 0 0 1 -12.122 4.855c-4.1 1.117-8.161 1.862-12.092 2.561-7.833 1.4-15.324 2.71-21.534 5.808a32.4 32.4 0 0 0 -4.363 2.591c-.685.477-1.3 1.028-1.936 1.489a15.44 15.44 0 0 0 -1.8 1.608l-1.727 1.713c-.536.566-1 1.191-1.489 1.772a32.908 32.908 0 0 0 -2.606 3.6 42.592 42.592 0 0 0 -5.853 14.267 41.8 41.8 0 0 0 -.819 11.467 28.787 28.787 0 0 0 .566 4.125 21.205 21.205 0 0 0 .715 2.978c.253.774.432 1.355.566 1.772a2.365 2.365 0 0 0 .235.571z" fill="#263238" transform="translate(-16.304 147.01)"/><path d="m292.643 411.864a15.585 15.585 0 0 0 .208-1.623 9.159 9.159 0 0 0 -.715-4.289 8.8 8.8 0 0 0 -4.289-4.617 9.829 9.829 0 0 0 -13.194 5.063 11.006 11.006 0 0 0 -.879 6.329 10.841 10.841 0 0 0 1.489 4.08c.566.894.983 1.311.938 1.355a4.288 4.288 0 0 1 -1.162-1.191 9.963 9.963 0 0 1 -1.832-4.155 11.184 11.184 0 0 1 .759-6.7 10.425 10.425 0 0 1 14.118-5.391 9.173 9.173 0 0 1 4.468 5.033 8.711 8.711 0 0 1 .506 4.468 6.394 6.394 0 0 1 -.3 1.206c-.026.313-.085.432-.115.432z" fill="#263238" transform="translate(13.254 143.637)"/><path d="m302.214 411.862c-.074 0 .119-.581.208-1.623a9.352 9.352 0 0 0 -.715-4.289 8.846 8.846 0 0 0 -4.3-4.617 9.844 9.844 0 0 0 -13.197 5.067 10.991 10.991 0 0 0 -.864 6.329 10.6 10.6 0 0 0 1.489 4.08c.566.894.983 1.311.938 1.355a3.976 3.976 0 0 1 -1.176-1.191 10.157 10.157 0 0 1 -1.832-4.155 11.318 11.318 0 0 1 .774-6.7 10.424 10.424 0 0 1 14.1-5.391 9.173 9.173 0 0 1 4.468 5.033 8.936 8.936 0 0 1 .521 4.468 5.284 5.284 0 0 1 -.313 1.206 1.058 1.058 0 0 1 -.1.432z" fill="#263238" transform="translate(17.934 143.639)"/><path d="m309.452 412.2a15.164 15.164 0 0 0 .119-1.638 9.279 9.279 0 0 0 -.953-4.244 8.816 8.816 0 0 0 -4.557-4.349 9.919 9.919 0 0 0 -7.655.149 10.037 10.037 0 0 0 -5.227 5.629 11.065 11.065 0 0 0 -.521 6.374 10.679 10.679 0 0 0 1.787 3.991c.611.849 1.057 1.251 1.013 1.3a3.992 3.992 0 0 1 -1.236-1.117 10.068 10.068 0 0 1 -2.07-4.051 11.3 11.3 0 0 1 .387-6.731 10.425 10.425 0 0 1 13.79-6.18 9.173 9.173 0 0 1 4.751 4.765 8.727 8.727 0 0 1 .774 4.468 5.32 5.32 0 0 1 -.238 1.221.862.862 0 0 1 -.164.413z" fill="#263238" transform="translate(21.479 144.048)"/><path d="m317.285 412.479v-1.638a9.114 9.114 0 0 0 -1.176-4.185 8.787 8.787 0 0 0 -4.78-4.11 9.829 9.829 0 0 0 -12.554 6.463 10.96 10.96 0 0 0 -.179 6.389 10.827 10.827 0 0 0 2 3.9c.655.8 1.117 1.177 1.072 1.236a4.17 4.17 0 0 1 -1.3-1.057 10.141 10.141 0 0 1 -2.279-3.932 11.3 11.3 0 0 1 0-6.746 10.544 10.544 0 0 1 5.227-6.344 10.425 10.425 0 0 1 8.221-.551 9.234 9.234 0 0 1 5 4.468 8.786 8.786 0 0 1 1 4.468 6.2 6.2 0 0 1 -.164 1.221c-.013.284-.058.418-.088.418z" fill="#263238" transform="translate(25.276 144.422)"/><path d="m325.065 412.214v-1.638a9.129 9.129 0 0 0 -1.3-4.155 8.831 8.831 0 0 0 -4.885-3.976 9.814 9.814 0 0 0 -12.375 6.821 10.886 10.886 0 0 0 2.1 10.231c.685.789 1.162 1.147 1.117 1.191a3.8 3.8 0 0 1 -1.325-1 10.3 10.3 0 0 1 -2.383-3.872 11.273 11.273 0 0 1 -.164-6.746 10.589 10.589 0 0 1 5.049-6.493 10.425 10.425 0 0 1 8.191-.774 9.263 9.263 0 0 1 5.138 4.348 8.832 8.832 0 0 1 1.117 4.468 5.84 5.84 0 0 1 -.134 1.236c-.072.21-.116.359-.146.359z" fill="#263238" transform="translate(29.112 144.419)"/><path d="m331.664 413.2v-1.638a9.1 9.1 0 0 0 -1.132-4.2 8.831 8.831 0 0 0 -4.721-4.155 9.814 9.814 0 0 0 -12.629 6.314 10.946 10.946 0 0 0 1.683 10.305c.655.819 1.1 1.191 1.072 1.251a4.065 4.065 0 0 1 -1.281-1.072 9.932 9.932 0 0 1 -2.234-3.961 11.243 11.243 0 0 1 .1-6.746 10.544 10.544 0 0 1 5.3-6.285 10.425 10.425 0 0 1 8.22-.447 9.129 9.129 0 0 1 4.944 4.557 8.741 8.741 0 0 1 .953 4.468 5.955 5.955 0 0 1 -.179 1.221c-.021.256-.066.405-.096.388z" fill="#263238" transform="translate(32.312 144.726)"/><path d="m372.723 204.662a81.284 81.284 0 0 0 -12.316.566 51.214 51.214 0 0 0 -44.676 51.065 91.289 91.289 0 0 0 3.172 24.349c7.163 25.406 9.367 47.789 8.548 58.7l23.976 12.882s11.095-15.949 21.817-22.83 46.4-25.317 60.537-44.155c9.1-12.182 10.856-37.23-10.856-59.062a73.612 73.612 0 0 0 -50.202-21.515z" fill="#54b692" transform="translate(34.158 48.201)"/><path d="m318.16 313.71 21.653 11.705-14.088 17.9-14.445-6.553z" fill="#455a64" transform="translate(31.981 101.566)"/><path d="m316.614 323.549c-.194-.074 1.951-6.508 4.8-14.356s5.3-14.177 5.5-14.1-1.951 6.493-4.8 14.356-5.306 14.16-5.5 14.1z" fill="#263238" transform="translate(34.585 92.457)"/><path d="m329.532 329.806c-.179-.1 3.217-6.18 7.565-13.567s8.027-13.239 8.221-13.239-3.217 6.18-7.58 13.567-8.038 13.313-8.206 13.239z" fill="#263238" transform="translate(40.907 96.327)"/><path d="m373.526 205.118c-.968 0-12.882 14-18.154 23.44-17.737 31.765-18.541 62.666-23.455 98.705-.7 5.153-3.261 16.247-3.217 15.994 2.621 2.055 11.437 6.15 11.437 6.15s8.325-10.037 11.631-15.086c13.224-20.209 27.6-35.979 38.928-57.32s22.234-40.209 11.75-62.041c0 .002-18.198-10.452-28.92-9.842z" opacity=".4" transform="translate(40.503 48.429)"/><path d="m434.03 277.273a3.989 3.989 0 0 1 -.313-.685c-.194-.447-.432-1.147-.834-2.01a35.992 35.992 0 0 0 -4.185-7.044 36.633 36.633 0 0 0 -9.188-8.578 35.175 35.175 0 0 0 -15.086-5.585h-.179l-.089-.119a85.082 85.082 0 0 0 -9.665-11.109 48.758 48.758 0 0 0 -13.209-9.084 33.939 33.939 0 0 0 -15.622-2.978 25.778 25.778 0 0 0 -13.66 4.555l-.223.149-.194-.179a26.805 26.805 0 0 0 -14.594-6.478 26.315 26.315 0 0 0 -12.405 1.579 27.848 27.848 0 0 0 -7.118 4.006c-.745.6-1.311 1.072-1.668 1.4a3.753 3.753 0 0 1 -.581.477 6.5 6.5 0 0 1 .506-.551c.343-.357.879-.864 1.608-1.489a26.135 26.135 0 0 1 7.118-4.214 26.464 26.464 0 0 1 12.614-1.757 27.238 27.238 0 0 1 14.967 6.538h-.417a26.374 26.374 0 0 1 14.013-4.721 34.729 34.729 0 0 1 15.95 2.978 49.144 49.144 0 0 1 13.4 9.248 83.1 83.1 0 0 1 9.71 11.244l-.223-.134a35.19 35.19 0 0 1 15.309 5.778 36.769 36.769 0 0 1 9.218 8.8 33.864 33.864 0 0 1 4.051 7.208c.372.879.581 1.593.745 2.055a5.76 5.76 0 0 1 .238.7z" fill="#263238" transform="translate(33.909 59.358)"/><path d="m387.231 292.777a15.458 15.458 0 0 0 -2.07-5.2 14.147 14.147 0 0 0 -4.6-4.468 12.881 12.881 0 0 0 -7.938-1.876h-.3v-.3a20.89 20.89 0 0 0 -30.454-15.19l-.223.119-.179-.194a15.19 15.19 0 0 0 -8.325-4.468 16.783 16.783 0 0 0 -7.446.238 17.468 17.468 0 0 0 -5.957 2.978 1.876 1.876 0 0 1 .313-.328c.223-.194.551-.506 1.013-.849a15.025 15.025 0 0 1 4.468-2.159 16.829 16.829 0 0 1 7.67-.387 15.548 15.548 0 0 1 8.712 4.6l-.4-.074a21.668 21.668 0 0 1 8.548-2.472 21.951 21.951 0 0 1 9.62 1.489 21.147 21.147 0 0 1 9.189 7.178 21.4 21.4 0 0 1 3.988 9.586l-.342-.268a13.4 13.4 0 0 1 8.265 2.07 14.356 14.356 0 0 1 4.646 4.661 12.479 12.479 0 0 1 1.579 3.932 9.9 9.9 0 0 1 .164 1.1 1.735 1.735 0 0 1 .06.283z" fill="#263238" transform="translate(36.12 75.5)"/><path d="m334.152 328.569a2.15 2.15 0 0 0 -.789-.536 3.917 3.917 0 0 0 -2.532.089 7.651 7.651 0 0 1 -1.921.343 2.979 2.979 0 0 1 -2.144-.938c-1.147-1.206-1.579-2.978-2.666-4.125a2.5 2.5 0 0 0 -2-.849 12.464 12.464 0 0 0 -2.264.462 5.077 5.077 0 0 1 -2.264.119 4.334 4.334 0 0 1 -3.2-3.321 1.729 1.729 0 0 1 0-1.013 2.721 2.721 0 0 0 .253.953 4.378 4.378 0 0 0 1.489 2.07 3.425 3.425 0 0 0 1.564.7 4.468 4.468 0 0 0 1.981-.179 11.911 11.911 0 0 1 2.4-.506 3.187 3.187 0 0 1 2.561 1.057c1.266 1.489 1.653 3.127 2.621 4.155a2.428 2.428 0 0 0 1.668.8 6.881 6.881 0 0 0 1.772-.253 3.9 3.9 0 0 1 2.785.179c.626.361.715.793.686.793z" fill="#263238" transform="translate(33.458 104.056)"/><path d="m336.129 326.64a91.518 91.518 0 0 1 -10.559-5.212 96.662 96.662 0 0 1 -10.231-5.867 95.455 95.455 0 0 1 10.573 5.212 97.29 97.29 0 0 1 10.217 5.867z" fill="#263238" transform="translate(33.967 102.471)"/><path d="m332.661 329.42s-.3.149-.819.387c-.268.119-.566.3-.983.477a3.664 3.664 0 0 1 -1.489.194 6.2 6.2 0 0 1 -3.574-1.385 4.9 4.9 0 0 1 -1.355-1.862 6.775 6.775 0 0 0 -1.057-1.951 5.019 5.019 0 0 0 -3.917-1.132 9.025 9.025 0 0 1 -3.768-.357 3.515 3.515 0 0 1 -1.906-1.742c-.238-.581-.149-.953-.119-.938a5.166 5.166 0 0 0 .387.8 3.4 3.4 0 0 0 1.832 1.385 8.936 8.936 0 0 0 3.544.164 5.57 5.57 0 0 1 4.468 1.311 7.448 7.448 0 0 1 1.162 2.159 4.467 4.467 0 0 0 1.147 1.653 6.046 6.046 0 0 0 3.172 1.37 4.469 4.469 0 0 0 2.323-.417c.609-.161.952-.161.952-.116z" fill="#263238" transform="translate(33.132 105.186)"/><path d="m281.481 103.26a36.307 36.307 0 1 0 -49.546 36.113c.283 4.289.6 9.144.6 9.144l31.75-2.055s-.134-5.138-.372-9.725a36.277 36.277 0 0 0 17.573-33.478z" fill="#54b692" transform="translate(-18.086 -18.009)"/><path d="m246.965 134.971v-1.771c0-1.147.164-2.859.342-5.048s.432-4.885.923-7.967a54.967 54.967 0 0 1 2.636-10.305 35.2 35.2 0 0 1 2.636-5.614 6.746 6.746 0 0 1 2.338-2.383 3.738 3.738 0 0 1 3.44-.1 2.457 2.457 0 0 1 1.236 1.355 2.487 2.487 0 0 1 0 1.876 5.2 5.2 0 0 1 -2.636 2.591 9.978 9.978 0 0 1 -12.971-5.763 7.625 7.625 0 0 1 -.491-4.17 3.261 3.261 0 0 1 3.142-2.725 2.293 2.293 0 0 1 1.921 1.162 3.261 3.261 0 0 1 .432 2.2 7.119 7.119 0 0 1 -2.308 3.768 10.782 10.782 0 0 1 -8.295 2.978 9.442 9.442 0 0 1 -7.342-4.765 5.5 5.5 0 0 1 -.521-4.378 2.651 2.651 0 0 1 3.723-1.638 3.693 3.693 0 0 1 1.638 1.489 5.777 5.777 0 0 1 .685 2.055 10.319 10.319 0 0 1 -.283 4.17 10.782 10.782 0 0 1 -4.721 6.4 10.99 10.99 0 0 1 -7.446 1.489 5.793 5.793 0 0 1 -3.366-1.489 2.8 2.8 0 0 1 -.432-3.47 2.4 2.4 0 0 1 1.579-.908 3.53 3.53 0 0 1 1.757.223 5.182 5.182 0 0 1 2.368 2.353c1.042 1.906 1.891 3.768 2.755 5.54 3.366 7.118 5.808 13 7.446 17.081.819 2.04 1.489 3.634 1.847 4.706.194.536.343.953.462 1.236a3.261 3.261 0 0 1 .134.432l-.179-.417-.506-1.206-1.921-4.691c-1.7-4.051-4.185-9.918-7.58-17.007-.864-1.757-1.742-3.649-2.77-5.51a4.9 4.9 0 0 0 -2.2-2.189 2.5 2.5 0 0 0 -2.9.566 2.457 2.457 0 0 0 .417 2.978 5.391 5.391 0 0 0 3.142 1.385 10.588 10.588 0 0 0 7.155-1.49 10.424 10.424 0 0 0 4.468-6.165 9.828 9.828 0 0 0 .268-4.006 3.917 3.917 0 0 0 -2.07-3.2 2.264 2.264 0 0 0 -1.891 0 2.308 2.308 0 0 0 -1.236 1.489 5.048 5.048 0 0 0 .491 4.021 9.04 9.04 0 0 0 7 4.468 10.32 10.32 0 0 0 7.938-2.874 6.716 6.716 0 0 0 2.159-3.485 2.874 2.874 0 0 0 -.378-1.922 1.906 1.906 0 0 0 -1.564-.953 2.636 2.636 0 0 0 -1.772.7 2.978 2.978 0 0 0 -.923 1.683 7.133 7.133 0 0 0 .462 3.932 9.576 9.576 0 0 0 12.509 5.555 4.825 4.825 0 0 0 2.442-2.383 2.144 2.144 0 0 0 -1.013-2.755 3.381 3.381 0 0 0 -3.112.089 6.463 6.463 0 0 0 -2.189 2.234 35.193 35.193 0 0 0 -2.621 5.54 54.3 54.3 0 0 0 -2.681 10.216c-.521 3.083-.8 5.763-1.013 7.952s-.313 3.872-.417 5.048c0 .551-.089 1-.1 1.311a4.053 4.053 0 0 1 -.043.476z" fill="#263238" transform="translate(-12.267 -5.921)"/><path d="m254.383 126.5-27.253 1.772a2.07 2.07 0 0 1 -2.189-1.921 2.055 2.055 0 0 1 1.921-2.174l27.268-1.757a2.04 2.04 0 0 1 2.174 1.906 2.055 2.055 0 0 1 -1.921 2.174z" fill="#263238" transform="translate(-10.259 7.983)"/><path d="m254.375 126.36-27.268 1.772a2.045 2.045 0 1 0 .268 4.08l2.978-.194 4.468 7.312a2.666 2.666 0 0 0 2.427 1.251l9.739-.626a2.7 2.7 0 0 0 2.249-1.579l3.366-7.789 2.04-.134a2.055 2.055 0 0 0 -.268-4.1z" fill="#263238" transform="translate(-10.132 9.912)"/><path d="m219.148 81.615a26.389 26.389 0 0 1 6.955-5.287 19.611 19.611 0 0 1 5.421-2c1.37-.223 2.159-.149 2.249.134.194.655-2.487 1.8-5.957 4.468a29.874 29.874 0 0 0 -11.69 30.142c.789 4.393 2 7.044 1.489 7.446-.268.164-.894-.313-1.742-1.4a18.838 18.838 0 0 1 -2.71-5.168 26.569 26.569 0 0 1 -1.489-8.578 28.294 28.294 0 0 1 1.862-10.648" fill="#fff" opacity=".2" transform="translate(-16.751 -15.604)"/><path d="m233.995 76.527c-2.293.119-4.363-.372-4.676-1.579-.134-.6.253-1.266 1.042-1.817a7.357 7.357 0 0 1 6.85-.417c.864.462 1.311 1.087 1.251 1.7" fill="#fff" opacity=".2" transform="translate(-8.128 -16.652)"/><path d="m245.217 135.286a15.889 15.889 0 0 1 -1.921-.462 15.874 15.874 0 0 0 -4.661-.283 16.083 16.083 0 0 0 -4.468 1.147c-1.1.477-1.757.864-1.787.8a5.525 5.525 0 0 1 1.653-1.087 13.4 13.4 0 0 1 4.617-1.3 13.164 13.164 0 0 1 4.78.417 5.763 5.763 0 0 1 1.787.768z" fill="#455a64" transform="translate(-6.618 13.674)"/><path d="m250.885 129.271c0 .119-4.914.536-11.005.938s-11.005.611-11.02.477 4.914-.536 10.99-.923 11.021-.612 11.035-.492z" fill="#455a64" transform="translate(-8.34 11.32)"/><path d="m248.672 131.513a16.381 16.381 0 0 1 -2.666.432c-1.653.223-3.946.462-6.493.67s-4.84.313-6.508.357a14.889 14.889 0 0 1 -2.7 0 15.012 15.012 0 0 1 2.681-.3l6.493-.491 6.493-.536a15.888 15.888 0 0 1 2.7-.134z" fill="#455a64" transform="translate(-7.63 12.428)"/><path d="m110.8 258.57 5.957 9.486s25.317-23.247 50.321-16.679c-.045-.03-22.562-19.121-56.278 7.193z" fill="#54b692" transform="translate(-66.097 67.785)"/><path d="m148.56 256.528s18.541-20.134 45.734-15.547l7.446 1.117-2.353-4.274s-47.342-16.203-50.827 18.704z" fill="#54b692" transform="translate(-47.624 62.604)"/><path d="m142.475 204.069s-37.141-6.389-61.475 6.79l38.72 72.793s31.661-30.514 61.951-11.72z" fill="#f5f5f5" transform="translate(-80.676 47.171)"/><path d="m142.581 204.143a2.566 2.566 0 0 1 .208.3l.551.923 2.144 3.619 8.042 13.79 28.474 49.143a.328.328 0 0 1 -.447.447 40.908 40.908 0 0 0 -14.253-5.465 44.675 44.675 0 0 0 -8.027-.566 50.466 50.466 0 0 0 -8.22 1.042 70.589 70.589 0 0 0 -30.708 16.381l-.328.3a.357.357 0 0 1 -.521 0v-.074l-38.675-72.9a.283.283 0 0 1 .119-.4 74.893 74.893 0 0 1 24.751-7.372 125.89 125.89 0 0 1 19.821-.864c5.48.194 9.754.625 12.643.983 1.489.179 2.561.343 3.306.477l.849.149h-.01l-.849-.1c-.745-.089-1.847-.238-3.306-.387-2.978-.3-7.178-.67-12.643-.8a126.445 126.445 0 0 0 -19.732 1 74.714 74.714 0 0 0 -24.529 7.431l.119-.4 38.72 72.793-.581-.1.328-.3a78.408 78.408 0 0 1 14.8-10.424 61.8 61.8 0 0 1 16.262-6.165 48.73 48.73 0 0 1 8.354-1.042 43.543 43.543 0 0 1 8.161.581 41.892 41.892 0 0 1 14.475 5.585l-.462.447-28.161-49.144-7.923-13.909-2.07-3.693c-.223-.417-.4-.73-.521-.968a2.5 2.5 0 0 1 -.164-.313z" fill="#263238" transform="translate(-80.782 47.096)"/><path d="m180.5 195.128s-28.087-17.871-57.9 14.892l39.137 67.893s7.982-27.55 54.714-17.975z" fill="#f5f5f5" transform="translate(-60.324 41.174)"/><path d="m180.6 195.221a1.312 1.312 0 0 1 .194.283c.119.223.3.506.506.879l1.981 3.455 7.443 13.162 26.106 46.955a.286.286 0 0 1 -.343.432l-6.955-1.147a31.869 31.869 0 0 0 -3.589-.4l-3.663-.3a31.271 31.271 0 0 0 -3.738-.089l-3.768.015c-1.281 0-2.547.253-3.827.372a28.523 28.523 0 0 0 -3.842.581l-3.827.864-3.768 1.325a39.88 39.88 0 0 0 -3.634 1.683 11.368 11.368 0 0 0 -1.757 1l-1.713 1.1c-1.132.759-2.144 1.683-3.2 2.532a33.814 33.814 0 0 0 -2.815 2.978 23.456 23.456 0 0 0 -4.17 7.148.372.372 0 0 1 -.477.223.358.358 0 0 1 -.194-.164l-1.579-2.725c-13.835-24.051-26.806-46.464-37.513-65.183a.343.343 0 0 1 0-.372 65.883 65.883 0 0 1 21.192-15.928 42.324 42.324 0 0 1 20-3.753 41.072 41.072 0 0 1 12.792 2.853 31.68 31.68 0 0 1 3.127 1.489l.774.447.238.179-.268-.134-.789-.4c-.7-.343-1.742-.849-3.142-1.385a41.8 41.8 0 0 0 -32.524 1.176 65.644 65.644 0 0 0 -20.938 15.89v-.362l37.6 65.228 1.638 2.7-.685.089a24.513 24.513 0 0 1 4.3-7.446 40.409 40.409 0 0 1 2.889-3.083c1.1-.879 2.13-1.832 3.291-2.591l1.742-1.132a11.911 11.911 0 0 1 1.8-1.013c1.251-.581 2.427-1.281 3.708-1.728l3.827-1.325 3.9-.879a26.8 26.8 0 0 1 3.9-.581c1.3-.119 2.576-.357 3.857-.372h3.827a26.438 26.438 0 0 1 3.768.089l3.693.313a28.917 28.917 0 0 1 3.619.4l7 1.176-.343.477c-10.678-19.36-19.6-35.577-25.883-47-3.112-5.674-5.57-10.171-7.252-13.269l-1.906-3.515c-.194-.387-.357-.685-.477-.908a2.434 2.434 0 0 1 -.133-.309z" fill="#263238" transform="translate(-60.421 41.081)"/><path d="m88 184.62 41.892 80.641s34.029-1.489 48.444 15.1l-38.809-67.536s-22.755-28.205-51.527-28.205z" fill="#f5f5f5" transform="translate(-77.251 38.414)"/><path d="m88 184.64h1.072l3.217.134h1.132l1.236.208 2.8.462a22.574 22.574 0 0 1 3.2.774 36.536 36.536 0 0 1 3.589 1.057c10.008 3.336 23.44 11.407 35.5 25.317l38.869 67.491a.372.372 0 0 1 -.134.506.357.357 0 0 1 -.447 0l-1.638-1.638a35.518 35.518 0 0 0 -10.722-7.074 61.054 61.054 0 0 0 -11.988-3.932 100.075 100.075 0 0 0 -23.827-2.353.357.357 0 0 1 -.313-.179c-12.212-23.678-22.636-43.917-30.037-58.243-3.6-7.074-6.493-12.733-8.533-16.634-.968-1.891-1.728-3.366-2.249-4.468l-.566-1.117-.179-.372a2.1 2.1 0 0 1 .223.4l.625 1.147 2.353 4.468 8.727 16.709 30.231 57.811-.313-.179a100.058 100.058 0 0 1 23.991 2.323 62.664 62.664 0 0 1 12.122 3.961 36.321 36.321 0 0 1 10.931 7.238l1.7 1.668-.611.432c-14.4-25.093-27.729-48.355-38.72-67.551a97.692 97.692 0 0 0 -18.332-16.59 70.634 70.634 0 0 0 -16.8-8.757 36.806 36.806 0 0 0 -3.574-1.087 22.032 22.032 0 0 0 -3.172-.8l-2.785-.506-1.206-.223-1.1-.089z" fill="#263238" transform="translate(-77.256 38.394)"/><g fill="#54b692"><path d="m177.85 338.2.894 1.489a10.275 10.275 0 0 0 4.229 3.9l1.489.774-1.489.893a10.426 10.426 0 0 0 -3.9 4.229l-.774 1.564-.894-1.489a10.276 10.276 0 0 0 -4.229-3.9l-1.564-.774 1.489-.894a10.172 10.172 0 0 0 3.9-4.229z" transform="translate(-36.348 113.547)"/><path d="m122.415 131.93.894 1.489a10.246 10.246 0 0 0 4.229 3.887l1.489.774-1.489.908a10.1 10.1 0 0 0 -3.9 4.229l-.774 1.489-.894-1.489a10.216 10.216 0 0 0 -4.244-3.9l-1.564-.774 1.489-.894a10.424 10.424 0 0 0 3.9-4.244z" transform="translate(-63.475 12.637)"/><path d="m378.965 167.52.893 1.489a10.216 10.216 0 0 0 4.244 3.9l1.564.774-1.489.894a10.276 10.276 0 0 0 -3.887 4.244l-.774 1.489-.908-1.489a10.156 10.156 0 0 0 -4.229-3.887l-1.579-.745 1.489-.908a10.1 10.1 0 0 0 3.9-4.229z" transform="translate(62.077 30.048)"/><path d="m348.66 351.15.894 1.489a10.276 10.276 0 0 0 4.244 3.887l1.564.774-1.489.908a10.29 10.29 0 0 0 -3.9 4.229l-.762 1.563-.908-1.489a10.171 10.171 0 0 0 -4.229-3.9l-1.564-.774 1.489-.894a10.216 10.216 0 0 0 3.9-4.244z" transform="translate(47.259 119.882)"/><path d="m352.488 389.74.432.179a2.785 2.785 0 0 0 1.489.149l.462-.089-.179.432a2.785 2.785 0 0 0 -.149 1.489l.089.462-.432-.179a2.8 2.8 0 0 0 -1.489-.149l-.462.089.179-.432a2.785 2.785 0 0 0 .149-1.489z" transform="translate(52.024 138.761)"/><path d="m369.938 128.81.417.179a2.829 2.829 0 0 0 1.489.149l.447-.089-.164.432a2.651 2.651 0 0 0 -.149 1.489l.089.462-.432-.179a2.829 2.829 0 0 0 -1.489-.149l-.447.089.164-.432a2.65 2.65 0 0 0 .149-1.489z" transform="translate(60.561 11.11)"/><path d="m131.708 105 .432.164a2.651 2.651 0 0 0 1.489.149h.462l-.179.417a2.83 2.83 0 0 0 -.149 1.489l.089.447-.432-.164a2.651 2.651 0 0 0 -1.489-.149h-.462l.179-.417a2.83 2.83 0 0 0 .149-1.489z" transform="translate(-55.985 -.538)"/><path d="m161.078 308.16.432.164a2.532 2.532 0 0 0 1.489.149l.462-.074-.179.432a2.784 2.784 0 0 0 -.149 1.489l.089.447-.432-.164a2.651 2.651 0 0 0 -1.489-.149l-.462.089.179-.432a2.829 2.829 0 0 0 .149-1.489z" transform="translate(-41.617 98.851)"/><path d="m222.268 386.69-.417.432-1.236 1.236-4.81 4.751-17.871 17.23v-.179c.938 18.69 2.13 44.006 3.38 72.3v.625l-.536-.343-6.448-4.319-40.864-27.357h-.089v-.089c-6.106-18.213-11.244-33.582-14.892-44.423-1.787-5.391-3.187-9.65-4.17-12.6l-1.072-3.351q-.179-.536-.268-.849a.661.661 0 0 0 -.074-.3l.119.268.313.849c.268.789.655 1.891 1.162 3.321l4.319 12.554c3.693 10.827 8.935 26.151 15.1 44.334l-.119-.149 40.905 27.318 6.448 4.3-.506.283c-1.206-28.3-2.293-53.612-3.1-72.331v-.1h.074l17.99-17.066 4.9-4.6 1.281-1.176a2.635 2.635 0 0 1 .481-.569z" transform="translate(-55.286 137.269)"/><path d="m182.987 445.25-.134 4.214 3.41 2.5-4.051 1.176-1.325 4.006-2.383-3.485-4.214-.015 2.591-3.336-1.3-4.021 3.976 1.43z" transform="translate(-35.037 165.917)"/><path d="m148.807 426.04.089 2.725 2.293 1.489-2.576.908-.7 2.651-1.668-2.159-2.725.149 1.534-2.264-.983-2.547 2.621.774z" transform="translate(-50.09 156.52)"/><path d="m134.141 385.11 2.055 2.651 3.351-.208-1.876 2.785 1.221 3.112-3.217-.923-2.591 2.13-.119-3.351-2.815-1.8 3.142-1.147z" transform="translate(-56.631 136.496)"/><path d="m192.831 383.34 2.07 2.636 3.336-.194-1.876 2.77 1.221 3.127-3.217-.938-2.591 2.13-.1-3.351-2.83-1.8 3.156-1.148z" transform="translate(-27.919 135.63)"/><path d="m176.961 400.48 1.311 1.7 2.13-.134-1.191 1.772.774 2-2.055-.6-1.653 1.355-.074-2.13-1.8-1.162 2.01-.73z" transform="translate(-34.983 144.015)"/><circle cx="63.154" cy="402.172" r="29.695"/></g><path d="m123.79 312.72a4.855 4.855 0 1 1 -4.84-4.84 4.855 4.855 0 0 1 4.84 4.84z" fill="#fff" opacity=".3" transform="translate(-64.492 98.715)"/><path d="m117.859 302.675a2.83 2.83 0 1 1 -2.83-2.815 2.829 2.829 0 0 1 2.83 2.815z" fill="#fff" opacity=".3" transform="translate(-65.412 94.791)"/><path d="m110.381 325.082c.134.521-25.421 25.034-18.824 30.261s34.252-8.176 57.916-27.253 45.2-42.249 39.285-48.385-35.428 12.018-35.428 12.018l3.529 2.264s17.871-11.452 23.5-7.014-10.425 21.8-33.165 38.392-44.676 28.206-48.057 23.664 12.663-19.687 12.663-19.687z" fill="#54b692" transform="translate(-76.043 84.312)"/><path d="m110.381 325.082c.134.521-25.421 25.034-18.824 30.261s34.252-8.176 57.916-27.253 45.2-42.249 39.285-48.385-35.428 12.018-35.428 12.018l3.529 2.264s17.871-11.452 23.5-7.014-10.425 21.8-33.165 38.392-44.676 28.206-48.057 23.664 12.663-19.687 12.663-19.687z" opacity=".3" transform="translate(-76.043 84.312)"/><path d="m115.861 290.867c.238.283-1.772 2-4.051 5.421a27.327 27.327 0 0 0 -.6 30.037c2.144 3.529 4.08 5.317 3.827 5.585s-2.532-1.162-5.182-4.676a26.125 26.125 0 0 1 .64-31.9c2.79-3.395 5.232-4.675 5.366-4.467z" fill="#fff" opacity=".3" transform="translate(-69.073 90.382)"/><circle cx="24.498" cy="24.498" fill="#54b692" r="24.498" transform="matrix(.72103502 -.69289862 .69289862 .72103502 355.811 123.254)"/><path d="m348.33 113.081a3.976 3.976 0 1 1 1.1 2.853 3.991 3.991 0 0 1 -1.1-2.853z" opacity=".4" transform="translate(50.106 1.508)"/><path d="m353.69 118.813a2.323 2.323 0 1 1 .643 1.666 2.338 2.338 0 0 1 -.643-1.666z" opacity=".4" transform="translate(52.728 5.099)"/><path d="m351.889 122.86a.834.834 0 0 1 .834.864.879.879 0 0 1 -.879.849.864.864 0 0 1 -.834-.879.849.849 0 0 1 .879-.834z" opacity=".4" transform="translate(51.417 8.2)"/><path d="m371.828 464.451c2.432.8 75.322-.122 77.973-1.848 1.021-.644-4.1-69.193-4.1-69.193l-47.073.474 5.01 45.857s-26.753 12.391-29.5 14.593-4.838 9.327-2.31 10.117z" fill="#d3766a" transform="translate(-188.508 95.285)"/><path d="m371.831 457.629c2.432.79 75.322-.122 77.973-1.861.474-.28-.353-14.994-1.386-30.778h-45.65l.876 7.916s-26.754 12.404-29.514 14.594-4.83 9.338-2.299 10.129z" fill="#fff" transform="translate(-188.512 102.108)"/><path d="m371.648 457.4c2.6.851 76.161.158 78.97-1.666 1.082-.669-.474-24.929-.474-25.063h-45.517v.8s-28.273 12.963-31.143 15.3-4.438 9.837-1.836 10.629z" fill="#a6a6a6" transform="translate(-189.131 103.335)"/><path d="m373.556 450.395c12.5-.426 62.967-.948 75.395-.426.1 0 .1.073 0 .085-12.379.693-62.845.8-75.395.547-.256-.012-.267-.194 0-.206z" fill="#263238" transform="translate(-190.845 107.457)"/><path d="m400.915 430.89c4.864-.961 10.944-.268 14.738 3.2.146.146 0 .353-.207.3a68.443 68.443 0 0 0 -14.507-2.882.316.316 0 0 1 -.024-.62z" fill="#263238" transform="translate(-190.745 103.297)"/><path d="m403.825 432.681c4.864-.973 10.944-.268 14.726 3.2.146.134 0 .34-.207.292a69.1 69.1 0 0 0 -14.5-2.87.316.316 0 0 1 -.024-.62z" fill="#263238" transform="translate(-197.182 103.683)"/><path d="m406.721 434.46c4.864-.961 10.944-.255 14.738 3.21.146.134 0 .34-.207.292a70.058 70.058 0 0 0 -14.5-2.882.316.316 0 0 1 -.036-.62z" fill="#263238" transform="translate(-203.616 104.069)"/><path d="m356.2 473.633h50.673s-9.327-117.373-8.974-118.893c.511-2.651 3.5-14.592 7.491-30.292 1.216-4.864 2.59-10.154 3.989-15.6 3.782-14.726 7.941-30.815 11.577-44.823 5.448-20.989 9.728-37.284 9.728-37.284h-42.984s-5.01 15.869-11.321 36.481c-10.276 33.563-24.017 79.748-25.367 90.972-1.658 13.571 5.188 119.439 5.188 119.439z" fill="#37474f" transform="translate(-145.009 59.277)"/><path d="m372.794 422.234c7.722-.17 5.5-.231 13.231-.3 3.782 0 28.638-.255 32.176.328.073 0 .073.146 0 .158-3.539.584-28.395.377-32.176.341-7.734-.073-5.509-.146-13.231-.3a.109.109 0 0 1 0-.219z" fill="#263238" transform="translate(-159.256 101.435)"/><path d="m389.3 231.48-7.868 27.75-7.7 27.8c-2.554 9.266-5.022 18.557-7.491 27.847s-4.864 18.605-7.175 27.969c-.547 2.347-1.094 4.682-1.557 7.053-.134.6-.219 1.216-.316 1.812v1.009l.073.9.28 3.648 1.119 14.374 2.262 28.747 3.818 55.476v.3l.572-.353-3.575-55.5-2.116-28.772-1.07-14.374-.255-3.648-.073-.9v-.778c.109-.584.182-1.216.316-1.751.462-2.335 1.021-4.67 1.569-7 4.512-18.678 9.534-37.247 14.422-55.841z" fill="#263238" transform="translate(-111.473 60.301)"/><path d="m350.77 226.69c2.979 23.1 13.766 61.4 17.912 92.784 9.728-38.026 24.017-92.784 24.017-92.784z" fill="#263238" transform="translate(-107.05 59.266)"/><path d="m372.9 464.03c-2.493.778-63.684 1.046-66.335-.73-1.021-.657-1.386-10.944-1.459-23.457v-.389c0-2.566-5.934-45.784-5.934-45.784l46.21.936 5.347 45.394v.778s17.271 10.822 19.98 13.086 4.682 9.4 2.191 10.166z" fill="#d3766a" transform="translate(-25.643 95.341)"/><path d="m299.179 425c.523 4.135.863 7.09.863 7.7v.4c.073 12.477.438 22.789 1.459 23.445 2.651 1.775 63.842 1.508 66.335.73s.474-7.929-2.225-10.166-19.967-13.085-19.967-13.085v-.778l-.973-8.246z" fill="#fff" transform="translate(-20.582 102.11)"/><path d="m368.137 457.4c-2.59.851-68.4.158-71.211-1.666-1.082-.669.474-24.929.474-25.063h45.516v.8s20.49 12.975 23.372 15.3 4.451 9.837 1.849 10.629z" fill="#a6a6a6" transform="translate(-17.867 103.335)"/><path d="m365.3 450.395c-12.5-.426-55.208-.948-67.6-.426-.1 0-.1.073 0 .085 12.379.693 55.1.8 67.6.547.265-.012.265-.194 0-.206z" fill="#263238" transform="translate(-15.222 107.457)"/><path d="m340.283 432.119c-6.238-1.715-14-1.7-19.055 1.715-.195.134 0 .389.243.365a97.926 97.926 0 0 1 18.739-1.374.355.355 0 1 0 .073-.705z" fill="#263238" transform="translate(-18.931 103.406)"/><path d="m336.671 434.509c-6.226-1.715-13.984-1.7-19.043 1.715-.207.134 0 .389.243.365a97.931 97.931 0 0 1 18.739-1.374c.462.012.511-.584.061-.706z" fill="#263238" transform="translate(-10.928 103.922)"/><path d="m333.066 436.9c-6.238-1.715-14-1.7-19.055 1.715-.195.134 0 .4.243.365a97.929 97.929 0 0 1 18.739-1.374c.462.011.507-.573.073-.706z" fill="#263238" transform="translate(-2.921 104.438)"/><path d="m316.2 226.69s6.506 39.7 6.956 40.981c0 0 2.432 1.143 6.785 3.162l19.3 202.605 50.928.207-28.384-246.955z" fill="#37474f" transform="translate(-72.48 59.266)"/><path d="m319.074 422.2c7.783-.134 5.545-.207 13.376-.243 3.806 0 28.832-.134 32.4.462.073 0 .073.146 0 .158-3.563.584-28.589.255-32.4.207-7.783-.109-5.545-.17-13.377-.365a.109.109 0 1 1 0-.219z" fill="#263238" transform="translate(-40.575 101.449)"/><path d="m369.684 259.375a95.278 95.278 0 0 1 14.593 7.625c.182.122 0 .4-.146.3-4.864-2.432-9.935-4.682-14.714-7.3a.343.343 0 1 1 .268-.632z" fill="#263238" transform="translate(-121.124 66.322)"/><path d="m373.676 240.686c.8 4.755 1.216 9.57 1.775 14.362.134 1.216.268 2.3.389 3.441a6.87 6.87 0 0 0 .827 3.028c1.034 1.593 2.882 2.347 4.56 3.077.195.085.122.4-.1.328a11.042 11.042 0 0 1 -4.864-2.566c-1.532-1.605-1.484-4.049-1.715-6.08a132.763 132.763 0 0 1 -1.119-15.517.127.127 0 0 1 .243-.073z" fill="#263238" transform="translate(-123.243 62.27)"/><path d="m373.972 241.885c.17 3.417.547 6.846.839 10.251.134 1.69.255 3.381.353 5.071s.316 3.466.255 5.193a.109.109 0 0 1 -.207 0c-.28-1.617-.316-3.308-.462-4.949s-.255-3.466-.353-5.193c-.195-3.466-.28-6.944-.6-10.385a.086.086 0 0 1 .175.012z" fill="#263238" transform="translate(-117.787 62.531)"/><path d="m353.92 267.17 2.724 23.3 2.846 23.287 5.861 46.55 11.881 90.7-10.8-90.851-6.117-46.514-3.15-23.251z" fill="#263238" transform="translate(-95.412 68.012)"/><path d="m453.042 188.207c-10.847 20.089-24.321 41.625-33.587 43.449-7.211 1.411-36.8-3.77-48.642-15.638-2.615-2.614 19.1-20.235 21.293-18.824 6.457 4.171 23.53 7.637 24.5 6.8 1.289-1.094 16.283-15.383 26.643-24.455 13.94-12.223 15.399-1.717 9.793 8.668z" fill="#d3766a" transform="translate(-194.559 47.891)"/><path d="m422.725 212.217c4.39 4.171 16.684 9.193 20.125 9.266s12.671-20.551 10.944-23.664-17.5-16.015-23.652-16.538-11.953 26.607-7.417 30.936z" fill="#d3766a" transform="translate(-253.888 49.454)"/><path d="m437.018 197.706a50.162 50.162 0 0 1 -4.074-14.009c-.584-5.8-.815-14.483-3.94-14.276-6.433.413-5.861 22.059-5.861 22.059s1.775 9.509 8.184 9.668a6.36 6.36 0 0 0 5.691-3.441z" fill="#d3766a" transform="translate(-239.361 46.893)"/><path d="m465.276 185.6c-.766 3.113-3.283 2.311-3.283 2.311l-17.572-3.077s-12.61-5.849-11.455-9.327c1.97-6.007 28.249 6.08 30.742 6.749a2.7 2.7 0 0 1 1.569 3.344z" fill="#d3766a" transform="translate(-279.621 47.848)"/><path d="m470.018 186.966a79.983 79.983 0 0 0 -1.8-7.807c-.608-1.484-16.1-21.427-22.922-27.568-1.678-1.508-2.517-2.128-3.3-1.946 0 0 20.527 28.577 22.631 31.35 1.216 1.593 2.432 6.506 2.432 6.506z" fill="#c7c7c7" transform="translate(-295.308 42.615)"/><path d="m430.159 174.318c2.359.28 8.16.243 10.142 1.751a5.959 5.959 0 0 1 2.335 6.579 3.577 3.577 0 0 1 -.292.766 5.156 5.156 0 0 1 -2.237 2.177 3.142 3.142 0 0 1 -.45.231 8.9 8.9 0 0 1 -2.76.79c-.924.085-1.812.109-2.614.219a5.678 5.678 0 0 0 -1.52.377l-1.325-.657a11.637 11.637 0 0 0 -2.067-3.648c-1.824-1.873-8.014-4.086-10.3-5.01a3.649 3.649 0 0 1 -.851-.4.474.474 0 0 1 -.061-.3v-.1a.5.5 0 0 1 0-.134v-.328a.608.608 0 0 1 0-.146c.073-.353.17-.742.28-1.131v-.134a7.9 7.9 0 0 1 .365-1.046 2.255 2.255 0 0 1 .195-.413c.459-.367 8.789.314 11.16.557zm.6 3.575a2.286 2.286 0 0 0 -.6 1.216c-.231 1.058.778 3.21 4.5 4.657l.255.1.243.085h.158a1.216 1.216 0 0 0 .28.073l.474.109h.316a5.327 5.327 0 0 0 .973 0h.146l.413-.073h.486a.911.911 0 0 0 .219-.1l.158-.085a.5.5 0 0 0 .134-.085l.134-.085.134-.1.109-.1a2.869 2.869 0 0 0 .523-.584 2.892 2.892 0 0 0 .268-.474 3.418 3.418 0 0 0 .231-1.423 3.551 3.551 0 0 0 -1.739-2.894 6.822 6.822 0 0 0 -2.675-.9c-2.955-.662-4.439-.091-5.144.663z" fill="#54b692" transform="translate(-239.166 47.808)"/><path d="m421.212 177.14a3.174 3.174 0 0 0 -.985 3.648c.827 2.432 5.521 4.122 8.573 3.308a2.919 2.919 0 0 0 2.262-3.137 4.356 4.356 0 0 0 -.122-.948 3.418 3.418 0 0 1 -.231 1.423 2.893 2.893 0 0 1 -.267.474 2.869 2.869 0 0 1 -.523.584l-.109.1-.134.1-.134.085a.5.5 0 0 1 -.134.085l-.158.085a.912.912 0 0 1 -.219.1h-.486l-.413.073h-.146a5.328 5.328 0 0 1 -.973 0h-.313l-.474-.109a1.215 1.215 0 0 1 -.28-.073h-.158l-.243-.085-.255-.1c-3.721-1.447-4.73-3.648-4.5-4.657a2.286 2.286 0 0 1 .426-.949z" opacity=".1" transform="translate(-229.624 48.561)"/><path d="m429.609 173.649c-.28.231-1.3 3.429-.961 3.806a3.649 3.649 0 0 0 .851.4 3.429 3.429 0 0 1 1.4-2.542c1.216-1.094 9.473-1 9.728-.985-2.408-.241-10.738-.922-11.018-.679z" opacity=".1" transform="translate(-249.597 47.796)"/><path d="m435.568 180.33h.73c.584.705 4.208 5.314 5.618 7.3.365.5.888 1.216 1.471 1.994 1.727 2.359 3.989 5.715 4.122 7.868.158 2.894-1.763 4.56-4.706 4-4.062-.754-7.223-7.2-8.512-10.421a41.627 41.627 0 0 1 -1.885-7.649 10.36 10.36 0 0 1 -.231-2.432 2.53 2.53 0 0 1 .572-.182 25.214 25.214 0 0 1 2.821-.474zm.268 6.238c-.705.45-1.131.924-.535 2.931a24.235 24.235 0 0 0 4.049 7.3l.863 1.143c.134.17.28.34.426.5 1.581 1.678 3.867 2.165 4.67.268.973-2.323-4.536-9.813-5.861-11.175s-2.76-1.52-3.563-.961z" fill="#54b692" transform="translate(-260.858 49.25)"/><path d="m435.533 181.038a10.357 10.357 0 0 0 .231 2.432c.231-1.3 2.043-1.824 3.235-1.471s7.552 7.442 7.746 7.673c-.584-.815-1.107-1.5-1.471-1.994-1.411-1.934-5.034-6.542-5.618-7.3-.232-.288-3.904.49-4.123.66z" opacity=".1" transform="translate(-264.167 49.248)"/><path d="m437.842 159.14s-.3.73.949 1.751 16.429 10.239 25.659 15.237l.535.292.876.462.9.474c.73.365 1.3.669 1.9.912a18.337 18.337 0 0 0 5.034 1.216l2.019.158 3.113.353.766-2.8-2.493-.413c-.8-.146-1.69-.3-2.432-.462a13.255 13.255 0 0 1 -1.958-.511l-3.137-1.508-2.894-1.386-.79-.389-.438-.207z" fill="#dbdbdb" transform="translate(-299.784 44.672)"/><path d="m445.485 173.051a.79.79 0 1 0 .866.607.79.79 0 0 0 -.866-.607z" fill="#c7c7c7" transform="translate(-275.056 47.677)"/><path d="m445.356 173.232a.559.559 0 0 0 -.413.669.549.549 0 1 0 1.07-.243.559.559 0 0 0 -.657-.426z" fill="#ebebeb" transform="translate(-274.878 47.715)"/><path d="m453.081 186.023s5.679 2.554 5.314 6.08-5.314 2.286-5.667 2.213c.292.134 5.448 2.614 4.718 6.08s-5.545 1.666-5.849 1.544c.231.219 3.381 3.162 2.225 5.691-2.007 4.366-10.251-2.943-14.106-2.542 0 0-.073 6.615-.122 6.81 0 0-7.989-6.786-8.233-12.027a3.356 3.356 0 0 1 2.432-3.429s-2.821-1.9-2.335-4.682c.255-1.423 2.76-2.286 2.76-2.286a4.183 4.183 0 0 1 -1.593-4.062 3.417 3.417 0 0 1 2.906-2.627c5.681-1.226 17.55 3.237 17.55 3.237z" fill="#d3766a" transform="translate(-270.758 49.735)"/><path d="m435.2 182.81v-.1a29.878 29.878 0 0 1 17.426 3.344c.17.1.572.888.377.8a48.482 48.482 0 0 0 -17.803-4.044z" fill="#263238" transform="translate(-270.07 49.725)"/><path d="m435.811 188.3a.061.061 0 0 1 0-.122 27.969 27.969 0 0 1 18.788 4.864c.182.134.207.45 0 .3-3.807-2.442-13.231-4.802-18.788-5.042z" fill="#263238" transform="translate(-272.434 50.915)"/><path d="m454.493 199.977c-5.4-3.648-11.431-5.229-17.852-5.946-.085 0 0-.122 0-.134 3.235-.511 7.3.377 10.373 1.325a17.231 17.231 0 0 1 7.6 4.56c.086.085-.014.268-.121.195z" fill="#263238" transform="translate(-273.374 52.149)"/><path d="m444.209 185.38c.207.109-.45.377-.255.5 2.128 1.325 5.813 3.891 5.12 5.861-.547 1.581-3.052 1.934-4.074 1.69l-2.554-.608 2.189 1.459a11.02 11.02 0 0 1 2.566 2.359 3.806 3.806 0 0 1 .924 3 2.2 2.2 0 0 1 -2.006 1.909 6.664 6.664 0 0 1 -3.271-.657l-2.848-1.212 2.274 2.116a9.875 9.875 0 0 1 1.654 1.97 4.183 4.183 0 0 1 .742 2.286 1.97 1.97 0 0 1 -1.131 1.751 4.414 4.414 0 0 1 -2.432 0 34.414 34.414 0 0 1 -5.1-1.8c-.839-.34-1.69-.681-2.554-.985a6.615 6.615 0 0 0 -2.687-.486 6.725 6.725 0 0 1 2.59.73 19.721 19.721 0 0 1 2.432 1.216 30.4 30.4 0 0 0 5.107 2.1 5.131 5.131 0 0 0 2.943.073 2.821 2.821 0 0 0 1.775-2.517 5.107 5.107 0 0 0 -.851-2.87 11.346 11.346 0 0 0 -1.812-2.225l-.572.851a7.539 7.539 0 0 0 3.855.8 3.174 3.174 0 0 0 1.958-.9 3.491 3.491 0 0 0 .949-1.9 4.865 4.865 0 0 0 -1.216-3.806 11.735 11.735 0 0 0 -2.87-2.554l-.365.863c1.3.255 4.147.17 5.326-2.177 1.077-3.335-4.699-6.363-5.806-6.837z" fill="#263238" transform="translate(-261.789 50.341)"/><path d="m383.178 198.1-13 30.194s29.708 7.612 39.12 3.806 26.133-29.185 32.991-45.626c7-16.781-3.648-14.434-10.847-7.552s-26.583 24.236-27.215 24.406-21.049-5.228-21.049-5.228z" fill="#54b692" transform="translate(-182.53 47.822)"/><path d="m420.233 209.208c.851-2.079 1.7-4.147 2.578-6.214s1.654-4.183 2.663-6.178c0-.085.207 0 .17 0-.608 2.067-1.447 4.086-2.213 6.08s-1.631 4.294-2.431 6.422c-1.642 4.232-3.429 8.379-5.3 12.513 0 .1-.182 0-.146-.073 1.396-4.208 2.928-8.427 4.679-12.55z" fill="#263238" transform="translate(-218.77 52.804)"/><path d="m412.42 186.489c-6.846 16.4-23.579 41.82-32.979 45.614a24.722 24.722 0 0 1 -9.254 1.034l39.606-59.209c4.39-1.083 7.09 1.884 2.627 12.561z" opacity=".1" transform="translate(-152.672 47.822)"/><path d="m335.219 258.932c1.107 1.216 70.008 3.454 70.36 3.016.985-1.216-7.673-46.076-14.872-63.234-9.218-22.071-14.52-24.1-17.73-25.476-4.037-1.715-14.787-1.532-16.575-.815-2.019.815-7.5 10.689-10.215 18.605-5.374 15.93-11.916 66.872-10.968 67.904z" fill="#54b692" transform="translate(-100.984 47.43)"/><path d="m337.98 246.64a24.1 24.1 0 0 0 3.539-5.338 9.724 9.724 0 0 1 -.8-.778 14.327 14.327 0 0 1 -1.678-2.165c.061-.45.122-.924.195-1.386a12.333 12.333 0 0 0 2.1 2.955c.17.195.365.377.559.572a22.317 22.317 0 0 0 .924-2.31 30.462 30.462 0 0 0 1.447-5.849 23.105 23.105 0 0 0 .134-6 11.418 11.418 0 0 0 -.657-2.882 5.765 5.765 0 0 0 -1.508-2.432 3.057 3.057 0 0 0 -.559-.389l.134-.8.243.122a4.644 4.644 0 0 1 .693.474 6.627 6.627 0 0 1 1.727 2.724 14.01 14.01 0 0 1 .681 3.052 24.492 24.492 0 0 1 -.17 6.19 30.962 30.962 0 0 1 -1.52 6 24.979 24.979 0 0 1 -1.046 2.517 13.754 13.754 0 0 0 3.83 2.177 14.933 14.933 0 0 0 5.825.924 16.562 16.562 0 0 0 5.752-1.4 24.9 24.9 0 0 0 4.244-2.359c-.073-.851-.085-1.69-.085-2.517a41.8 41.8 0 0 1 1.9-12.16 27.322 27.322 0 0 1 2.432-5.691 14.117 14.117 0 0 1 1.885-2.554 5.5 5.5 0 0 1 2.821-1.7 3.381 3.381 0 0 1 1.739.134 4.634 4.634 0 0 1 1.471.876 4.864 4.864 0 0 1 1.5 2.943 10.022 10.022 0 0 1 -.109 3.2 19.126 19.126 0 0 1 -.876 3.016 29.11 29.11 0 0 1 -2.833 5.509 39.783 39.783 0 0 1 -3.806 4.864 34.964 34.964 0 0 1 -5.071 4.5 28.149 28.149 0 0 0 .413 3.064 18.716 18.716 0 0 0 1.946 5.606 11.5 11.5 0 0 0 3.94 4.28 11.747 11.747 0 0 0 5.569 1.69 14.836 14.836 0 0 0 2.943-.122 15.334 15.334 0 0 0 2.87-.754 17.024 17.024 0 0 0 2.675-1.3 19.673 19.673 0 0 0 2.432-1.7 34.45 34.45 0 0 0 7.661-9.23 54.2 54.2 0 0 0 3.235-6.384 38.6 38.6 0 0 1 -6.1-9.85 39.618 39.618 0 0 1 -3.235-11.82 18.483 18.483 0 0 1 .3-6.177 9.157 9.157 0 0 1 1.216-2.931 6.336 6.336 0 0 1 2.286-2.213 6.8 6.8 0 0 1 2.724-.851c.085.231.158.45.243.669a6.627 6.627 0 0 0 -2.639.766 5.764 5.764 0 0 0 -2.067 1.982 9.229 9.229 0 0 0 -1.107 2.724 18.874 18.874 0 0 0 -.316 5.971 41.346 41.346 0 0 0 8.974 21.269c.584-1.362 1.107-2.748 1.581-4.147a63.529 63.529 0 0 0 1.836-6.615l.438 1.775c-.426 1.715-.912 3.417-1.484 5.107s-1.107 3.077-1.751 4.584a19.736 19.736 0 0 0 4.572 3.782 11.8 11.8 0 0 0 1.861.876 1.987 1.987 0 0 0 .1.45 11.553 11.553 0 0 1 -2.165-.973 19.58 19.58 0 0 1 -4.56-3.648 55.939 55.939 0 0 1 -3.113 6.08 35.073 35.073 0 0 1 -7.868 9.473 21.877 21.877 0 0 1 -2.554 1.8 17.753 17.753 0 0 1 -2.821 1.362 16.938 16.938 0 0 1 -3.04.8 15.916 15.916 0 0 1 -3.137.134 12.768 12.768 0 0 1 -6.007-1.812 12.549 12.549 0 0 1 -4.244-4.609 19.345 19.345 0 0 1 -2.067-5.873 24.38 24.38 0 0 1 -.377-2.627 26.066 26.066 0 0 1 -3.976 2.152 17.6 17.6 0 0 1 -6.08 1.447 15.419 15.419 0 0 1 -6.165-.985 13.777 13.777 0 0 1 -3.916-2.189 24.736 24.736 0 0 1 -4.183 5.959c.027-.314.063-.679.1-1.031zm25-7a32.916 32.916 0 0 0 4.463-4.074 35.345 35.345 0 0 0 3.709-4.755 28.986 28.986 0 0 0 2.736-5.326 12.161 12.161 0 0 0 .924-5.74 4 4 0 0 0 -1.216-2.432 3.648 3.648 0 0 0 -1.155-.669 2.432 2.432 0 0 0 -1.216-.109 4.682 4.682 0 0 0 -2.3 1.447 13.965 13.965 0 0 0 -1.751 2.359 28.65 28.65 0 0 0 -2.347 5.509 41.113 41.113 0 0 0 -1.873 11.893c-.021.657-.009 1.272.027 1.892zm-19.457-29.623a3.876 3.876 0 0 0 .559.243 5.862 5.862 0 0 0 2.833.28 6.493 6.493 0 0 0 2.724-.936 5.606 5.606 0 0 0 1.934-2.092 8.756 8.756 0 0 0 .973-2.773 19 19 0 0 0 0-5.983 37.7 37.7 0 0 0 -3.4-10.689c.085-.219.17-.438.268-.669a39.205 39.205 0 0 1 3.758 11.273 19.139 19.139 0 0 1 0 6.177 9.145 9.145 0 0 1 -1 2.992 6.676 6.676 0 0 1 -2.165 2.347 7.3 7.3 0 0 1 -3 1.034 6.579 6.579 0 0 1 -3.174-.292 3.339 3.339 0 0 1 -.438-.182c.061-.255.109-.5.158-.73zm20.831-20.673a19.207 19.207 0 0 1 .693-3.052 28.566 28.566 0 0 1 2.529-5.667 37.43 37.43 0 0 1 3.575-5.12 35.932 35.932 0 0 1 2.6-2.821 6.522 6.522 0 0 1 .973.316 34.36 34.36 0 0 0 -2.87 3.077 36.3 36.3 0 0 0 -3.417 4.961 28.71 28.71 0 0 0 -2.432 5.484 12.161 12.161 0 0 0 -.584 5.788 4.037 4.037 0 0 0 1.326 2.323 3.721 3.721 0 0 0 1.216.6 2.517 2.517 0 0 0 1.277 0 4.694 4.694 0 0 0 2.213-1.569 14.47 14.47 0 0 0 1.605-2.432 27.884 27.884 0 0 0 2.031-5.642 40.374 40.374 0 0 0 1.216-11.942 9.188 9.188 0 0 1 .985.547 41.748 41.748 0 0 1 -1.216 11.638 27.875 27.875 0 0 1 -2.128 5.825 13.28 13.28 0 0 1 -1.739 2.651 5.508 5.508 0 0 1 -2.7 1.861 3.332 3.332 0 0 1 -1.763 0 4.4 4.4 0 0 1 -1.52-.778 4.779 4.779 0 0 1 -1.763-2.858 9.729 9.729 0 0 1 -.085-3.174z" fill="#030402" opacity=".1" transform="translate(-102.808 47.598)"/><path d="m296.984 189.736c20.9 11.017 49.748 16.161 56.509 13.012 9.084-4.256 23.689-22.935 30.4-33.332 1.958-3.052-22.12-17.864-24.224-14.593-2.542 3.94-15.371 24.552-15.736 24.856-.766.644-37.26-.839-43.875-1.216-10.845-.45-12.644 6.237-3.074 11.273z" fill="#d3766a" transform="translate(-25.38 43.639)"/><path d="m317.107 157.458c-1.386 5.873-8.938 16.781-11.771 18.715s-21.8-10.288-22.108-13.8 5.922-22.922 10.774-26.753 24.552 15.745 23.105 21.838z" fill="#d3766a" transform="translate(50.613 39.484)"/><path d="m282.323 144.439c.985 3.052 4.013.146 4.013.146s-3.356 5.229-1.131 7.977 5.691-.985 5.947-1.216c-.182.28-3.137 5.156-.62 7.685s5.557-1.617 5.74-1.9c-.085.316-1.107 4.487 1.216 5.983 4.049 2.554 6.968-8.05 10.409-9.813 0 0 3.648 5.5 3.806 5.63s2.979-10.032.34-14.593a3.332 3.332 0 0 0 -3.891-1.544s1.313-3.137-.608-5.193c-.985-1.046-3.551-.4-3.551-.4a4.207 4.207 0 0 0 -.876-4.28c-1.447-1.374-3.794-.511-3.794-.511s-.219-2.87-2.165-3.806c-3.879-1.846-16.927 9.305-14.835 15.835z" fill="#d3766a" transform="translate(55.994 38.032)"/><path d="m306.555 131.794v-.073a29.781 29.781 0 0 0 -12.755 12.294c-.085.17.146.377.28.219a61.033 61.033 0 0 1 12.477-12.44z" fill="#263238" transform="translate(48.397 38.748)"/><path d="m302.771 135.608s0-.134-.085-.1a27.847 27.847 0 0 0 -13.072 14.276c-.085.219 0 .486.17.243 1.909-4.094 8.475-11.184 12.987-14.419z" fill="#263238" transform="translate(57.288 39.566)"/><path d="m286.589 155.05c2.517-6.007 6.7-10.592 11.686-14.69a.073.073 0 0 0 -.085-.109c-2.979 1.338-5.886 4.28-7.953 6.761a17.194 17.194 0 0 0 -3.855 7.953c-.024.122.146.219.207.085z" fill="#263238" transform="translate(65.663 40.591)"/><path d="m288.552 141.71a19.583 19.583 0 0 0 -1.35 3.32 6.555 6.555 0 0 0 -.255 3.4 2.14 2.14 0 0 0 .9 1.216 2.931 2.931 0 0 0 1.5.5 3.794 3.794 0 0 0 2.833-1.3l1.8-1.909-1.034 2.432a10.75 10.75 0 0 0 -.863 3.368 3.83 3.83 0 0 0 .863 3.016 2.189 2.189 0 0 0 2.712.5 6.506 6.506 0 0 0 2.432-2.323l1.7-2.6-.754 3a10.057 10.057 0 0 0 -.3 2.554 4.281 4.281 0 0 0 .62 2.323 1.97 1.97 0 0 0 1.909.839 4.28 4.28 0 0 0 2.055-1.313 34.943 34.943 0 0 0 3.283-4.281c.523-.742 1.046-1.5 1.605-2.213a6.47 6.47 0 0 1 1.982-1.873 6.749 6.749 0 0 0 -1.775 2.019c-.5.754-.961 1.532-1.423 2.323a30.405 30.405 0 0 1 -3.125 4.536 5.192 5.192 0 0 1 -2.432 1.666 2.809 2.809 0 0 1 -2.858-1.143 5.143 5.143 0 0 1 -.851-2.846 10.835 10.835 0 0 1 .3-2.858l.948.4a7.71 7.71 0 0 1 -2.785 2.773 3.271 3.271 0 0 1 -2.128.316 3.551 3.551 0 0 1 -1.836-1.07 4.864 4.864 0 0 1 -1.094-3.818 11.443 11.443 0 0 1 1.009-3.648l.766.511a4.512 4.512 0 0 1 -3.575 1.435 3.721 3.721 0 0 1 -1.836-.717 2.712 2.712 0 0 1 -1.058-1.654 6.762 6.762 0 0 1 .5-3.648 16.039 16.039 0 0 1 1.615-3.233z" fill="#263238" transform="translate(53.777 40.907)"/><path d="m295.092 158.639s-4.378-25.245 6.323-22.132c3.186.936 15.152 8.512 13.668 10.944-1.921 3.15-7.5.9-10.786-1.07 0 0 2.7 8.379-2.566 12a6.36 6.36 0 0 1 -6.64.255z" fill="#d3766a" transform="translate(39.223 39.725)"/><path d="m293.759 136.3a13.377 13.377 0 0 1 3.721 1.216 29.572 29.572 0 0 1 3.441 1.885 44.835 44.835 0 0 1 6.311 4.682 6.932 6.932 0 0 1 1.338 1.593 2.737 2.737 0 0 1 .4 1.119 2.079 2.079 0 0 1 0 .657 1.763 1.763 0 0 1 -.255.6 3.223 3.223 0 0 1 -1.812 1.386 6.08 6.08 0 0 1 -2.128.231 11.783 11.783 0 0 1 -3.916-1.021 28.267 28.267 0 0 1 -3.514-1.824l.669-.547a16.911 16.911 0 0 1 .535 2.967 15.247 15.247 0 0 1 0 2.979 10.253 10.253 0 0 1 -.778 2.87 7.818 7.818 0 0 1 -1.666 2.432 8.975 8.975 0 0 0 1.374-2.529 10.568 10.568 0 0 0 .5-2.809 14.835 14.835 0 0 0 -.219-2.87 15.643 15.643 0 0 0 -.669-2.748l-.389-1.107 1.046.559a29.836 29.836 0 0 0 3.441 1.666 11.505 11.505 0 0 0 3.648.888 3.21 3.21 0 0 0 2.955-1.082c.511-.717-.377-1.836-1.216-2.687a37.272 37.272 0 0 0 -2.894-2.505c-1-.815-2.031-1.605-3.077-2.347a25.026 25.026 0 0 0 -6.846-3.648z" fill="#263238" transform="translate(45.981 39.738)"/><path d="m354.236 158.11 31.364 14.957s-18.314 26.753-28.443 30.267-41.127-5.022-58.005-13.3c-17.268-8.512-7.15-14.045 3.344-13.559s38.026.766 38.658.45 13.082-18.815 13.082-18.815z" fill="#54b692" transform="translate(-25.855 44.45)"/><path d="m309.662 169.392c-2.128-1.058-4.244-2.116-6.384-3.15s-4.232-2.165-6.421-3.052c-.1 0-.195.109-.1.17 1.921 1.216 4.013 2.238 6.019 3.308s4.28 2.274 6.421 3.393c4.244 2.225 8.573 4.28 12.927 6.263.109 0 .17-.1.073-.158-4.132-2.348-8.278-4.634-12.535-6.774z" fill="#263238" transform="translate(29.128 45.547)"/><path d="m351.717 187.613c.985.073 1.97.158 2.955.28l.535.085-1.216-.5c-1.459-.572-2.991-1.07-4.39-1.788a.061.061 0 0 1 0-.122 49.173 49.173 0 0 1 4.694 1.532 67.321 67.321 0 0 1 7 2.712.073.073 0 1 1 0 .146 35.764 35.764 0 0 1 -4.67-1.447l-.523-.061a8.2 8.2 0 0 1 -1.423-.207c-.985-.158-1.946-.365-2.918-.584-.081.003-.069-.059-.044-.046z" fill="#263238" transform="translate(-74.227 50.382)"/><path d="m364.974 185.911c3.782 1.3 11.042-3.94 14.155-8.512.207-.316.061-3.831.073-8.123 0-2.6.109-5.484.377-8.123.061-.547-16.939 2.335-16.939 2.335a41.942 41.942 0 0 1 .572 10.276 5.528 5.528 0 0 1 -.231 1.07 1.6 1.6 0 0 1 0 .182c-.581 2.066-1.655 9.618 1.993 10.895z" fill="#d3766a" transform="translate(-108.035 45.092)"/><path d="m379.177 161.15c-1.216 4.378-5.083 14.86-13.924 14.167a10.946 10.946 0 0 1 -1.69-.268.657.657 0 0 1 0-.182 7.079 7.079 0 0 0 .219-1.058 42.065 42.065 0 0 0 -.572-10.3s12.306-2.067 15.967-2.359z" fill="#263238" transform="translate(-108.655 45.107)"/><path d="m387.748 145.375c2.019 5.813-.474 22.935-4.524 26.875-5.874 5.728-15.809 6.6-20.734-.523-4.779-6.907-1.131-29.185 3.417-32.772 6.701-5.327 18.874-2.189 21.841 6.42z" fill="#d3766a" transform="translate(-114.332 39.746)"/><path d="m373.164 152.86s.085.073.073.122c-.195 1.143-.231 2.432.754 3.016v.073c-1.326-.365-1.204-2.153-.827-3.211z" fill="#263238" transform="translate(-115.264 43.316)"/><path d="m372.956 152c1.873.122 1.5 3.867-.243 3.745s-1.338-3.854.243-3.745z" fill="#263238" transform="translate(-113.853 43.129)"/><path d="m380.616 152.3a.1.1 0 0 0 -.1.1c-.085 1.216-.365 2.432-1.459 2.76 1.304.01 1.643-1.741 1.559-2.86z" fill="#263238" transform="translate(-129.381 43.195)"/><path d="m380.751 151.224c-1.848-.328-2.371 3.393-.657 3.648s2.213-3.372.657-3.648z" fill="#263238" transform="translate(-130.427 42.958)"/><path d="m373.084 151.2a12.166 12.166 0 0 1 -1.4-.657 2.432 2.432 0 0 1 -1.3-.936.815.815 0 0 1 .231-.949 1.982 1.982 0 0 1 1.994 0 2.858 2.858 0 0 1 1.532 1.411.839.839 0 0 1 -1.058 1.131z" fill="#263238" transform="translate(-112.339 42.35)"/><path d="m379.167 149.97a9.181 9.181 0 0 0 1.52-.231 2.614 2.614 0 0 0 1.52-.535.827.827 0 0 0 0-.973 1.994 1.994 0 0 0 -1.921-.572 2.906 2.906 0 0 0 -1.873.924.851.851 0 0 0 .754 1.386z" fill="#263238" transform="translate(-130.096 42.18)"/><path d="m376.164 161.793c-.3.243-.62.6-1.046.584a3.21 3.21 0 0 1 -1.216-.413s-.073 0 0 0a1.581 1.581 0 0 0 1.411.778 1.216 1.216 0 0 0 1.009-.936c-.012-.013-.158-.05-.158-.013z" fill="#263238" transform="translate(-118.763 45.242)"/><path d="m381.355 161.154a3.988 3.988 0 0 1 -2.809 1.484 5.179 5.179 0 0 1 -1.435-.073l-.267-.061h-.244a.3.3 0 0 1 -.207-.292.364.364 0 0 1 0-.122v-.1c.061-.9.292-2.25.292-2.25-.353.134-2.079.717-2.006.255a59.085 59.085 0 0 1 2.736-11.8.109.109 0 0 1 .207 0c-.45 3.709-1.557 7.3-2.067 11.042a6.957 6.957 0 0 1 1.921-.377c.122 0-.474 2.6-.474 3a5.448 5.448 0 0 0 4.22-.851c.133-.037.206.06.133.145z" fill="#263238" transform="translate(-124.805 42.294)"/><path d="m374.423 159.934a4.707 4.707 0 0 0 1.788 1.569 2.2 2.2 0 0 0 1.289.158c.936-.195 1.009-1.046.888-1.788a5.46 5.46 0 0 0 -.353-1.143 6.08 6.08 0 0 1 -3.612 1.204z" fill="#263238" transform="translate(-121.546 44.584)"/><path d="m374.423 161.29a2.2 2.2 0 0 0 1.289.158c.936-.195 1.009-1.046.888-1.788a2.2 2.2 0 0 0 -2.177 1.629z" fill="#ff9bbc" transform="translate(-119.758 44.785)"/><path d="m383.986 161.3c-3.113-.474-3.077-8.391-3.077-8.391s-3.879-1.508-5.01-8.719c0 0-2.76 7.053-15.711 5.3a11.127 11.127 0 0 1 1.034-6.749 46.75 46.75 0 0 0 -3.368 6.944s-2.955-10.835 6.311-14.507c3.648-1.459 9.242-1.082 17.657 3.223 0 0 1.69-5.047 2.663-4.366s-.985 5.387-.985 5.387 3.733-1.094 4.353-.316-3.064 1.569-3.064 1.569a7.369 7.369 0 0 1 4.621 8.439c-.936 6.013-3.867 12.422-5.424 12.186z" fill="#263238" transform="translate(-111.993 39.236)"/><path d="m356.626 139.41a6.725 6.725 0 0 1 6.8 5.764 12.659 12.659 0 0 1 -.863 5.606 24.042 24.042 0 0 1 -2.821 5.253c-.061.1-.195 0-.134-.109a17.817 17.817 0 0 0 2.274-4.961 16.526 16.526 0 0 0 .9-5.144 6.457 6.457 0 0 0 -6.153-6.226.1.1 0 0 1 0-.182z" fill="#263238" transform="translate(-84.851 40.41)"/><path d="m373.193 133.645a25.537 25.537 0 0 1 6.323 2.432 18.8 18.8 0 0 1 5.217 3.745.086.086 0 1 1 -.109.134 34.208 34.208 0 0 0 -11.066-5.3c-3.648-1.094-7.977-1.216-10.8 1.775 0 0-.134 0-.085-.061 2.527-3.102 6.848-3.552 10.52-2.725z" fill="#263238" transform="translate(-113.579 39.086)"/><path d="m358.329 156.058s3.758-5.557 6.275-4.232-.243 9.351-3.162 10.494a2.967 2.967 0 0 1 -4.013-1.532z" fill="#d3766a" transform="translate(-88.038 43.048)"/><path d="m363.619 153.67s.061.061 0 .073a7.491 7.491 0 0 0 -3.818 4.779 1.63 1.63 0 0 1 2.432-.486c.061 0 0 .122 0 .109a1.836 1.836 0 0 0 -2.006.669 8.511 8.511 0 0 0 -.936 1.654c-.1.182-.426.085-.365-.122-.086-2.627 1.884-6.372 4.693-6.676z" fill="#263238" transform="translate(-87.905 43.491)"/></svg>