<?xml version="1.0" encoding="utf-8"?>
<!-- Generator: Adobe Illustrator 27.5.0, SVG Export Plug-In . SVG Version: 6.00 Build 0)  -->
<svg version="1.1" id="Ñëîé_1" xmlns="http://www.w3.org/2000/svg" xmlns:xlink="http://www.w3.org/1999/xlink" x="0px" y="0px"
	 viewBox="0 0 2600 2000" style="enable-background:new 0 0 2600 2000;" xml:space="preserve">
<rect id="_x35_" style="fill:#FFFFFF;" width="2600" height="2000"/>
<g>
	<g id="_x34_">
		<path style="fill:#DCE6FF;" d="M349.63,1570.451c-4.519-13.937-8.991-28.379-13.289-42.923l10.595-3.171
			c4.271,14.45,8.713,28.798,13.202,42.641L349.63,1570.451z M2244.977,1552.452l-10.97-1.363
			c1.821-14.836,3.551-29.778,5.141-44.41l10.988,1.21C2248.54,1522.572,2246.804,1537.566,2244.977,1552.452z M324.138,1484.293
			c-3.869-14.374-7.62-29.015-11.152-43.516l10.736-2.648c3.51,14.415,7.239,28.968,11.085,43.255L324.138,1484.293z
			 M2254.661,1463.253l-11.003-1.047c1.398-14.896,2.694-29.88,3.849-44.535l11.018,0.879
			C2257.366,1433.262,2256.065,1448.302,2254.661,1463.253z M302.887,1397.005c-3.193-14.644-6.23-29.451-9.029-44.011l10.852-2.112
			c2.781,14.469,5.8,29.186,8.973,43.738L302.887,1397.005z M2261.697,1373.788l-11.031-0.703
			c0.936-14.885,1.757-29.901,2.438-44.627l11.041,0.518C2263.46,1343.764,2262.637,1358.84,2261.697,1373.788z M285.937,1308.765
			c-2.458-14.824-4.734-29.771-6.763-44.429l10.947-1.535c2.017,14.559,4.277,29.407,6.718,44.133L285.937,1308.765z
			 M2265.833,1284.124l-11.049-0.323c0.431-14.951,0.729-29.983,0.884-44.676l11.053,0.118
			C2266.564,1254.004,2266.266,1269.104,2265.833,1284.124z M273.626,1219.728c-1.648-14.972-3.082-30.031-4.263-44.757
			l11.017-0.896c1.173,14.617,2.596,29.564,4.232,44.428L273.626,1219.728z M2255.713,1194.446
			c-0.13-14.963-0.412-29.989-0.84-44.662l11.049-0.325c0.428,14.749,0.713,29.852,0.844,44.89L2255.713,1194.446z
			 M266.465,1130.097c-0.733-15.061-1.219-30.181-1.445-44.943l11.052-0.172c0.223,14.638,0.706,29.633,1.433,44.57
			L266.465,1130.097z M2253.097,1105.161c-0.759-14.943-1.692-29.936-2.772-44.564l11.022-0.826
			c1.088,14.712,2.026,29.793,2.789,44.821L2253.097,1105.161z M276.177,1040.396l-11.051-0.229
			c0.308-15.1,0.901-30.226,1.764-44.954l11.034,0.654C277.069,1010.455,276.481,1025.436,276.177,1040.396z M2246.49,1016.122
			c-1.476-14.94-3.149-29.862-4.969-44.352l10.966-1.395c1.833,14.587,3.516,29.609,5.002,44.646L2246.49,1016.122z
			 M281.429,951.457l-10.998-1.112c1.502-15.044,3.332-30.08,5.441-44.691l10.938,1.599
			C284.724,921.704,282.914,936.576,281.429,951.457z M2235.332,927.588c-2.3-14.846-4.824-29.636-7.503-43.959l10.861-2.059
			c2.702,14.437,5.246,29.343,7.564,44.304L2235.332,927.588z M928.098,926.018c-15.359-2.437-26.468-9.474-41.857-21.625
			l6.987-8.621c13.481,10.617,23.218,16.986,36.048,19.184L928.098,926.018z M966.447,899.55l-9.843-5.059
			c5.06-9.972,9.532-23.811,13.295-41.13l10.798,2.375C976.676,874.245,972.015,888.576,966.447,899.55z M853.802,872.487
			c-8.805-9.869-18.215-21.227-28.767-34.723l8.686-6.88c10.403,13.305,19.662,24.482,28.306,34.17L853.802,872.487z
			 M294.193,863.363l-10.851-2.12c2.863-14.848,6.103-29.654,9.63-44.006l10.73,2.671
			C300.22,834.078,297.021,848.699,294.193,863.363z M2218.895,839.959c-3.273-14.693-6.804-29.259-10.495-43.294l10.686-2.846
			c3.726,14.171,7.29,28.876,10.593,43.707L2218.895,839.959z M988.133,810.964l-10.962-1.42c1.697-13.279,3.219-27.82,4.651-44.455
			l11.012,0.961C991.388,782.84,989.851,797.531,988.133,810.964z M797.963,801.922c-8.985-12.212-18.304-25.121-26.334-36.262
			l8.947-6.532c8.014,11.12,17.314,24.002,26.269,36.174L797.963,801.922z M1607.19,801.007c-8.608,0-17.054-2.588-25.102-7.693
			l5.893-9.412c12.09,7.682,23.985,7.699,36.827,1.572l4.756,10.042C1621.971,799.16,1614.443,801.007,1607.19,801.007z
			 M315.459,777.038l-10.57-3.253c4.392-14.454,9.21-28.83,14.321-42.728l10.365,3.861
			C324.539,748.616,319.789,762.787,315.459,777.038z M1665.708,766.432l-8.121-7.547c8.38-9.135,17.364-20.404,27.465-34.451
			l8.955,6.523C1683.646,745.366,1674.39,756.97,1665.708,766.432z M1550.66,758.783c-7.153-11.106-14.242-24.186-21.671-39.985
			l9.99-4.759c7.218,15.348,14.072,28.005,20.956,38.693L1550.66,758.783z M2196.189,753.857
			c-4.452-14.414-9.204-28.603-14.122-42.173l10.384-3.812c4.979,13.737,9.787,28.098,14.292,42.683L2196.189,753.857z
			 M745.435,729.392c-10.113-13.91-18.54-25.33-26.523-35.938l8.812-6.716c8.02,10.658,16.481,22.124,26.631,36.085L745.435,729.392
			z M996.159,721.124l-11.03-0.718c0.838-13.034,1.691-27.683,2.606-44.785l11.037,0.599
			C997.854,693.361,996.999,708.049,996.159,721.124z M346.144,693.738l-10.112-4.492c6.068-13.831,12.534-27.413,19.404-40.694
			l9.801,5.143C358.477,666.763,352.115,680.127,346.144,693.738z M1719.329,693.735l-9.236-6.112
			c7.855-12.019,15.968-24.753,24.181-37.617l9.299,6.014C1735.34,668.917,1727.218,681.662,1719.329,693.735z M1511.196,677.283
			c-5.007-12.639-10.18-26.429-15.816-42.156l10.397-3.774c5.595,15.611,10.726,29.287,15.687,41.811L1511.196,677.283z
			 M2165.807,670.345c-5.942-13.932-12.228-27.465-18.683-40.223l9.851-5.048c6.563,12.974,12.953,26.729,18.99,40.882
			L2165.807,670.345z M691.622,658.204c-10.029-12.53-19.365-23.682-28.541-34.093l8.269-7.382
			c9.292,10.544,18.739,21.828,28.879,34.496L691.622,658.204z M1001.072,631.344l-11.04-0.56
			c0.745-14.862,1.484-29.732,2.273-44.863l11.038,0.583C1002.555,601.626,1001.815,616.489,1001.072,631.344z M1767.805,618.447
			l-9.221-6.134c9.235-14.064,17.495-26.23,25.252-37.192l9.003,6.453C1785.157,592.43,1776.968,604.491,1767.805,618.447z
			 M387.158,615.307l-9.316-5.987c8.686-13.691,17.642-26.056,26.618-36.751l8.444,7.178
			C404.243,590.067,395.581,602.031,387.158,615.307z M1480.622,592.675c-5.069-14.95-10.042-29.909-14.239-42.57l10.485-3.52
			c4.191,12.643,9.156,27.579,14.214,42.497L1480.622,592.675z M632.69,591.896c-11.297-11.07-22.405-20.849-33.016-29.067
			l6.741-8.816c10.948,8.479,22.383,18.543,33.986,29.912L632.69,591.896z M2125.663,591.421
			c-7.92-13.008-16.224-25.31-24.682-36.565l8.815-6.711c8.675,11.544,17.184,24.148,25.291,37.463L2125.663,591.421z
			 M443.906,549.481l-6.704-8.845c13.2-10.134,26.938-17.443,40.832-21.722l3.234,10.638
			C468.631,533.444,456.061,540.149,443.906,549.481z M1819.498,546.079l-8.587-7.004c10.365-12.873,20.188-23.95,30.028-33.863
			l7.819,7.862C1839.193,522.712,1829.621,533.508,1819.498,546.079z M1005.821,541.705l-11.033-0.662
			c0.957-16.17,1.907-30.855,2.905-44.893l11.025,0.794C1007.723,510.938,1006.775,525.579,1005.821,541.705z M563.131,539.375
			c-13.792-6.908-27.359-11.317-40.322-13.105l1.5-11.022c14.157,1.953,28.875,6.719,43.746,14.167L563.131,539.375z
			 M2072.547,521.393c-10.641-10.973-21.659-20.658-32.747-28.787l6.508-8.992c11.587,8.494,23.076,18.591,34.149,30.008
			L2072.547,521.393z M1452.284,507.536c-5.498-16.552-10.03-30.048-14.26-42.473l10.455-3.606
			c4.241,12.452,8.781,25.973,14.287,42.551L1452.284,507.536z M1881.839,484.676l-6.335-9.115
			c13.594-9.572,27.323-16.66,40.809-21.069l3.414,10.58C1907.284,469.141,1894.536,475.737,1881.839,484.676z M2002.443,471.048
			c-13.69-5.811-27.547-9.408-41.186-10.69l1.028-11.077c14.766,1.388,29.722,5.263,44.453,11.517L2002.443,471.048z
			 M1012.253,452.281l-11.01-0.984c1.378-15.609,2.876-30.683,4.454-44.804l10.984,1.244
			C1015.113,421.772,1013.623,436.759,1012.253,452.281z M1423.318,422.751c-5.341-15.004-10.374-28.72-15.388-41.93l10.326-3.969
			c5.041,13.283,10.1,27.069,15.467,42.147L1423.318,422.751z M1022.309,363.378l-10.94-1.591
			c2.235-15.575,4.693-30.554,7.304-44.52l10.862,2.056C1026.954,333.135,1024.522,347.957,1022.309,363.378z M1391.51,339.286
			c-5.939-14.379-11.925-28.135-17.795-40.888l10.03-4.675c5.93,12.885,11.976,26.779,17.972,41.293L1391.51,339.286z
			 M1038.922,275.791l-10.724-2.696c3.855-15.534,8.105-30.167,12.632-43.491l10.458,3.599
			C1046.863,246.231,1042.702,260.56,1038.922,275.791z M1354.085,258.473c-7.27-13.78-14.696-26.716-22.072-38.449l9.34-5.948
			c7.525,11.971,15.093,25.152,22.495,39.18L1354.085,258.473z M1067.889,192.445l-9.912-4.924
			c7.258-14.801,15.306-27.887,23.922-38.897l8.683,6.884C1082.441,165.911,1074.806,178.338,1067.889,192.445z M1306.68,183.943
			c-9.658-12.186-19.626-22.981-29.628-32.083l7.415-8.251c10.444,9.505,20.825,20.742,30.855,33.397L1306.68,183.943z
			 M1121.419,126.675l-5.959-9.37c13.094-8.434,27.52-13.919,42.878-16.3l1.683,10.995
			C1146.195,114.144,1133.207,119.081,1121.419,126.675z M1242.178,126.668c-12.876-6.986-26.288-11.762-39.864-14.195l1.938-10.953
			c14.735,2.641,29.26,7.808,43.171,15.356L1242.178,126.668z"/>
		<path style="fill:#D4E8FF;" d="M560.261,1630.632c0,0-269.202-665.386-75.475-813.55
			c129.488-99.034,266.738,119.281,430.556,3.788c145.844-102.822,99.48-415.648,332.081-458.887
			c261.519-48.615,319.101,534.849,533.718,455.099c260.423-96.771,519.475,99.676,295.607,814.821L560.261,1630.632z"/>
		<path style="fill:#EEF7FF;" d="M2315.025,1401.24c-91.723-13.684-76.756,109.941-207.501,109.941
			c-119.54,0-157.783-470.785-244.758-336.208c-445.887,689.923-186.969-293.402-541.575-305.898
			c-160.343-5.65-267.188,166.428-306.589,471.1c-57.114,275.434-189.567-210.078-325.876-164.936
			c-86.632,28.69-76.71,335.942-196.25,335.942c-130.745,0-115.777-123.624-207.5-109.941
			c-98.755,14.732-128.252,233.545-128.252,233.545h2286.553C2443.277,1634.785,2413.78,1415.972,2315.025,1401.24z"/>
		<path style="fill:#DCE6FF;" d="M2233.798,1535.058c-84.383-5.843-70.613,46.946-190.895,46.946
			c-109.974,0-106.952-118.308-180.545-143.451c-135.526-46.304-247.256,188.044-299.798,70.43
			c-99.793-312.081-390.846-468.587-525.12,0c-52.543,117.614-175.414-92.251-299.798-70.43
			c-76.563,13.432-70.571,143.451-180.545,143.451c-120.282,0-106.512-52.789-190.895-46.946
			c-90.852,6.291-117.989,99.727-117.989,99.727h2103.574C2351.787,1634.785,2324.651,1541.349,2233.798,1535.058z"/>
		<path style="fill:#CFDDF9;" d="M158.424,1634.785c0,0-16.042,61.31,50.417,76.66c90.903,20.996,624.49,76.16,494.863,118.079
			c-73.175,23.663,37.355,55.795,393.769,67.627c356.414,11.832,967.994-34.528,762.329-103.122
			c-205.665-68.594,632.27-16.564,581.229-159.244H158.424z"/>
	</g>
	<g id="_x33_">
		<path style="fill:#CE3932;" d="M1285.982,1342.646V1231.88c0-6.292-4.477-11.394-10-11.394h-369.8c-5.523,0-10,5.102-10,11.394
			v110.766c0,6.292,4.477,11.394,10,11.394h114.072v326.412c0,6.292,4.477,11.394,10,11.394h121.655c5.523,0,10-5.102,10-11.394
			V1354.04h114.072C1281.505,1354.04,1285.982,1348.938,1285.982,1342.646z"/>
		<path style="fill:#CE3932;" d="M1564.264,1227.872c-1.466-4.443-5.195-7.386-9.361-7.386h-132.7c-4.166,0-7.895,2.942-9.361,7.385
			l-147.974,448.572c-1.154,3.499-0.729,7.422,1.14,10.496c1.868,3.073,4.94,4.907,8.221,4.907h124.215
			c4.432,0,8.335-3.324,9.591-8.167l17.073-65.881h123.225l17.545,65.959c1.278,4.804,5.165,8.089,9.57,8.089h127.395
			c3.281,0,6.354-1.834,8.222-4.907c1.867-3.073,2.293-6.995,1.14-10.495L1564.264,1227.872z M1516.984,1498.013h-59.438
			l29.563-110.856L1516.984,1498.013z"/>
		<path style="fill:#CE3932;" d="M2188.727,1674.173l-130.499-225.13l119.019-211.004c1.978-3.506,2.118-7.962,0.364-11.62
			c-1.753-3.658-5.118-5.934-8.776-5.934h-132.666c-3.62,0-6.957,2.229-8.726,5.828l-59.203,120.483l-60.903-120.6
			c-1.785-3.534-5.09-5.711-8.668-5.711H1764.66c-3.673,0-7.051,2.294-8.797,5.976c-1.747,3.682-1.581,8.158,0.431,11.66
			l119.845,208.525l-132.171,227.516c-2.032,3.498-2.213,7.985-0.47,11.682c1.742,3.695,5.127,6.001,8.809,6.001h135.889
			c3.475,0,6.7-2.055,8.52-5.428l69.227-128.326l69.228,128.326c1.819,3.373,5.045,5.428,8.52,5.428h136.694
			c3.681,0,7.063-2.303,8.807-5.996C2190.932,1682.158,2190.754,1677.672,2188.727,1674.173z"/>
		<path style="fill:#EB5648;" d="M1255.982,1342.646V1231.88c0-6.292-4.477-11.394-10-11.394h-369.8c-5.523,0-10,5.102-10,11.394
			v110.766c0,6.292,4.477,11.394,10,11.394h114.072v326.412c0,6.292,4.477,11.394,10,11.394h121.655c5.523,0,10-5.102,10-11.394
			V1354.04h114.072C1251.505,1354.04,1255.982,1348.938,1255.982,1342.646z"/>
		<path style="fill:#EB5648;" d="M1534.264,1227.872c-1.466-4.443-5.195-7.386-9.361-7.386h-132.7c-4.166,0-7.895,2.942-9.361,7.385
			l-147.974,448.572c-1.154,3.499-0.729,7.422,1.14,10.496c1.868,3.073,4.94,4.907,8.221,4.907h124.215
			c4.432,0,8.335-3.324,9.591-8.167l17.073-65.881h123.225l17.545,65.959c1.278,4.804,5.165,8.089,9.57,8.089h127.395
			c3.281,0,6.354-1.834,8.222-4.907c1.867-3.073,2.293-6.995,1.14-10.495L1534.264,1227.872z M1486.984,1498.013h-59.438
			l29.563-110.856L1486.984,1498.013z"/>
		<path style="fill:#EB5648;" d="M2158.727,1674.173l-130.499-225.13l119.019-211.004c1.978-3.506,2.118-7.962,0.364-11.62
			c-1.753-3.658-5.118-5.934-8.776-5.934h-132.666c-3.62,0-6.957,2.229-8.726,5.828l-59.203,120.483l-60.903-120.6
			c-1.785-3.534-5.09-5.711-8.668-5.711H1734.66c-3.673,0-7.051,2.294-8.797,5.976c-1.747,3.682-1.581,8.158,0.431,11.66
			l119.845,208.525l-132.171,227.516c-2.032,3.498-2.213,7.985-0.47,11.682c1.742,3.695,5.127,6.001,8.809,6.001h135.889
			c3.475,0,6.7-2.055,8.52-5.428l69.227-128.326l69.228,128.326c1.819,3.373,5.045,5.428,8.52,5.428h136.694
			c3.681,0,7.063-2.303,8.807-5.996C2160.932,1682.158,2160.754,1677.672,2158.727,1674.173z"/>
	</g>
	<g id="_x32_">
		<path style="fill:#EB5648;" d="M689.45,1696.538c-0.417,0-0.84-0.056-1.261-0.173l-269.617-75.063
			c-2.146-0.598-3.576-2.623-3.421-4.845c0.155-2.223,1.851-4.03,4.059-4.324l262.363-34.991l-244.776-110.253
			c-1.979-0.892-3.089-3.026-2.681-5.159c0.408-2.133,2.227-3.706,4.396-3.805l271.724-12.276l-245.673-133.99
			c-1.909-1.041-2.853-3.258-2.279-5.355c0.574-2.098,2.507-3.513,4.687-3.451l266.366,9.212l-232.029-128.068
			c-1.937-1.069-2.864-3.347-2.224-5.464c0.64-2.119,2.681-3.493,4.877-3.318l271.886,22.475c2.582,0.213,4.502,2.479,4.289,5.062
			c-0.213,2.582-2.475,4.499-5.062,4.288l-250.051-20.67l230.011,126.954c1.9,1.049,2.833,3.265,2.255,5.356
			c-0.578,2.092-2.521,3.503-4.684,3.439l-266.146-9.204l243.022,132.545c1.848,1.008,2.798,3.123,2.325,5.174
			c-0.474,2.052-2.256,3.535-4.359,3.631l-268.867,12.147l241.84,108.931c1.91,0.86,3.018,2.884,2.715,4.957
			c-0.303,2.072-1.945,3.693-4.021,3.97l-255.964,34.138l247.556,68.921c2.496,0.695,3.956,3.282,3.261,5.777
			C693.389,1695.179,691.504,1696.538,689.45,1696.538z"/>
		<rect x="409.618" y="1679.346" style="fill:#CE3932;" width="297.192" height="25"/>
		
			<rect x="656.396" y="1012.251" transform="matrix(0.3863 -0.9224 0.9224 0.3863 -657.3616 1327.3964)" style="fill:#CE3932;" width="25" height="290.947"/>
	</g>
	<g id="_x31_">
		<path style="fill:#F99370;" d="M1042.073,1016.525c0,0,27.045-3.585,49.035-9.445l7.119,48.105l-51.039-3.432
			C1047.187,1051.753,1031.125,1038.495,1042.073,1016.525z"/>
		<path style="fill:#F99370;" d="M1610.628,1129.288l-14.921-27.933l34.394-24.308c0,0,3.515,14.371,9.622,31.748
			C1639.723,1108.795,1633.985,1131.933,1610.628,1129.288z"/>
		<path style="fill:#1D3F70;" d="M1017.198,1015.591c-2.795,0.756-5.444,1.944-7.729,3.733l12.334,84.96
			c0.6,4.131,5.099,6.531,8.796,4.595c0.044-0.023,0.088-0.046,0.132-0.07c8.453-4.465,20.128-17.727,16.456-57.057
			c0,0-5.899-12.747-5.114-35.228C1042.073,1016.525,1028.525,1012.507,1017.198,1015.591z"/>
		<path style="fill:#395B96;" d="M1030.731,1108.809l-13.533-93.218c-2.795,0.756-5.444,1.944-7.729,3.733l12.334,84.96
			c0.6,4.131,5.099,6.531,8.796,4.595L1030.731,1108.809z"/>
		<path style="fill:#E8C0A6;" d="M1044.176,1093.217c-0.592-0.01-1.161-0.321-1.478-0.87c-0.141-0.239-3.31-5.498-11.426-7.493
			c-0.933-0.229-1.504-1.172-1.274-2.104c0.229-0.933,1.171-1.504,2.104-1.275c9.646,2.371,13.455,8.864,13.611,9.139
			c0.478,0.834,0.189,1.896-0.645,2.373C1044.786,1093.149,1044.478,1093.222,1044.176,1093.217z"/>
		<path style="fill:#E8C0A6;" d="M1047.051,1080.679c-2.67-0.552-4.82-7.425-15.965-9.406c-2.219-0.316-1.702-3.818,0.541-3.437
			c10.713,1.685,16.618,9.747,16.862,10.089C1049.342,1079.032,1048.428,1080.744,1047.051,1080.679z"/>
		<path style="fill:#E8C0A6;" d="M1047.824,1064.979c-0.467-0.008-0.93-0.202-1.267-0.577c-0.059-0.067-6.167-6.761-15.867-8.633
			c-0.944-0.182-1.56-1.094-1.379-2.038c0.181-0.944,1.09-1.555,2.036-1.378c10.894,2.104,17.526,9.42,17.803,9.731
			c0.638,0.716,0.575,1.812-0.139,2.452C1048.674,1064.84,1048.247,1064.986,1047.824,1064.979z"/>
		<path style="fill:#1D3F70;" d="M1621.053,1151.9c1.939,2.151,4.197,3.977,6.826,5.206l70.169-49.425
			c3.412-2.403,3.515-7.501,0.116-9.924c-0.04-0.029-0.081-0.057-0.122-0.086c-7.807-5.521-24.915-9.938-58.319,11.124
			c0,0-8.696,11.027-29.095,20.493C1610.628,1129.288,1613.177,1143.191,1621.053,1151.9z"/>
		<path style="fill:#E8C0A6;" d="M1675.763,1109.829c-0.968,0.724-2.463,0.176-2.711-1.018c-3.18-11.151,4.558-22.651,4.9-14.371
			c-0.143,0.222-3.41,5.43-1.513,13.584C1676.602,1108.728,1676.313,1109.431,1675.763,1109.829z"/>
		<path style="fill:#E8C0A6;" d="M1663.776,1116.277c-0.926,0.686-2.334,0.236-2.672-0.875c-4.07-11.357,2.806-26.735,4.455-18.009
			c-0.053,0.105-4.028,8.051-1.146,16.936C1664.651,1115.066,1664.371,1115.846,1663.776,1116.277z"/>
		<path style="fill:#E8C0A6;" d="M1650.115,1123.586c-7.664,3.13-2.407-32.509,1.171-19.95c-0.034,0.084-3.239,8.558-0.518,18.06
			C1650.976,1122.421,1650.693,1123.169,1650.115,1123.586z"/>
		<path style="fill:#395B96;" d="M1698.042,1097.672l-76.99,54.229c1.939,2.151,4.197,3.977,6.826,5.206l70.169-49.425
			c3.412-2.403,3.515-7.501,0.116-9.924L1698.042,1097.672z"/>
		<path style="fill:#1D3F70;" d="M1417.186,776.214c0.092,6.204,0.04,12.805-0.227,19.742
			c-1.287,33.417-7.531,74.497-25.719,114.846c-15.13,33.613-38.541,66.716-74.272,94.429
			c-46.401,35.988-121.351,84.602-209.445,101.98c-6.59,1.294-13.252,2.421-19.977,3.348
			c-25.276-28.206-26.106-108.894-26.106-108.894c6.567-1.156,13.014-2.502,19.324-4.035
			c83.014-19.928,151.959-69.067,172.906-136.617c10.613-34.203,8.929-73.109-9.455-115.336c-0.278-0.688-0.585-1.372-0.893-2.055
			l4.437-0.536l69.043-8.398l12.458-1.511l82.911-10.081C1412.173,723.096,1416.688,744.245,1417.186,776.214z"/>
		<path style="fill:#163356;" d="M1417.127,790.418c0.036-1.515,0.062-3.012,0.078-4.491c0.001-0.066,0.002-0.133,0.002-0.199
			c0.395-37.211-5.034-62.632-5.034-62.632l-82.916,10.079c-2.259-1.08-4.484-2.137-6.678-3.183
			c-21.096-5.908-39.557-4.457-54.261,1.889c-8.685,3.767-15.397,7.599-20.557,11.205c-1.278,0.885-2.454,1.752-3.544,2.591
			c18.384,42.227,20.068,81.133,9.455,115.336c0.772,0.682,1.568,1.33,2.376,1.961c20.524,15.906,79.347,26.977,90.978,30.636
			c17.069,5.387,31.594,11.057,44.216,17.191c18.187-40.349,24.431-81.43,25.719-114.846c0.064-1.657,0.113-3.287,0.153-4.905
			C1417.118,790.839,1417.122,790.629,1417.127,790.418z"/>
		<path style="fill:#1D3F70;" d="M1656.516,1063.07c-24.401,38.645-101.182,61.578-101.182,61.578
			c-3.218-7.262-6.325-14.393-9.313-21.438c-21.488-50.526-37.618-95.176-61.113-132.68
			c-27.999-44.749-55.249-71.655-125.697-93.909c-11.631-3.659-69.356-16.253-90.98-30.629
			c-44.102-29.319-45.302-94.097-32.496-117.438c0,0,12.851,0.161,44.769-13.664c14.704-6.346,33.165-7.797,54.261-1.889
			c27.518,13.152,59.095,27.568,90.455,44.029c60.038,31.474,119.383,70.479,148.378,122.556
			c20.32,36.513,58.493,125.499,74.98,164.576C1653.514,1055.847,1656.516,1063.07,1656.516,1063.07z"/>
		<path style="fill:#163356;" d="M1107.524,1107.212c-6.59,1.294-13.252,2.421-19.977,3.348
			c-25.276-28.206-26.106-108.894-26.106-108.894c6.567-1.156,13.014-2.502,19.324-4.035c0.017,0.012,0.017,0.012,0.017,0.012
			S1074.901,1047.205,1107.524,1107.212z"/>
		<path style="fill:#163356;" d="M1656.516,1063.07c-24.401,38.645-101.182,61.578-101.182,61.578
			c-3.218-7.262-6.325-14.393-9.313-21.438c0,0,57.642-14.763,102.557-59.047C1653.514,1055.847,1656.516,1063.07,1656.516,1063.07z
			"/>
		<path style="fill:#F4D4BE;" d="M1227.394,751.153c0,0-4.069,14.373,16.823,13.384c20.892-0.989,85.785-15.331,109.964-17.803
			s28.135,2.967,33.08,0c4.945-2.967,3.147-11.981,3.147-11.981s8.737,7.528,16.634,7.035c7.898-0.493,16.478-2.942,7.497-15.318
			L1227.394,751.153z"/>
		<path style="fill:#F99370;" d="M1385.089,504.618c37.796-5.395,77.461-15.343,107.617-39.425
			c28.845-24.525,53.092-54.694,70.78-88.289c5.374-10.087,10.126-20.554,14.078-31.271c0.053-0.138,0.112-0.311,0.146-0.33
			l9.145-5.371c7.868-4.693,16.633,3.318,14.559,11.715c-4.26,56.382-29.872,109.84-66.177,152.681
			c-35.731,39.8-87.979,60.519-139.631,68.77C1348.218,581.487,1337.233,510.57,1385.089,504.618z"/>
		<path style="fill:#F99370;" d="M1583.62,304.379c5.028,0.562,1.779,12.122,3.958,16.191c5.629-5.864,9.605-13.402,9.659-13.412
			c3.006-9.61,5.486-19.365,7.526-29.235c10.259-11.362,1.725,26.209,1.561,30.043c0.047,0.018,0.093,0.039,0.14,0.058
			c5.179-9.186,9.863-18.673,13.717-28.492c13.11-9.33-5.291,29.476-6.632,33.237c0.018,0.017,0.036,0.035,0.054,0.052
			c6.333-7.816,11.713-16.411,16.111-25.465c14.045-8.227-7.705,29.743-10.222,32.908c0.021,0.034,0.042,0.068,0.063,0.102
			c5.868-5.414,11.043-11.576,15.863-17.951c14.182-5.785-9.303,24.385-11.923,27.035c-0.891,2.733-11.954,16.856-23.563,27.724
			c-4.303,4.029-23.31-1.102-24.093-6.84c-0.734-5.38,0.952-22.346,1.238-25.006C1576.791,320.054,1577.886,306.43,1583.62,304.379z
			"/>
		<path style="fill:#3A72AA;" d="M1599.832,366.231c0,0-0.271,4.126-1.182,11.234h-0.01c-3.244,25.432-14.663,89.023-50.932,138.066
			c-7.593,10.266-16.048,19.224-25.006,27.021l-0.01,0.01c-35.04,30.517-77.885,43.494-108.005,49.005
			c-22.285,4.087-37.596,4.087-37.596,4.087l6.683-95.047c0,0,14.653-8.174,50.39-14.391
			c32.967-5.724,106.116-72.287,132.294-116.324c2.208-3.69,4.077-7.225,5.559-10.556
			C1572.017,359.336,1582.961,371.955,1599.832,366.231z"/>
		<path style="fill:#23659B;" d="M1522.693,542.562c-35.04,30.517-77.885,43.494-108.005,49.005l4.813-29.141
			C1419.501,562.426,1467.228,567.365,1522.693,542.562z"/>
		<path style="fill:#3A72AA;" d="M1414.539,726.47c-41.587,2.295-87.779,18.078-123.439,22.736
			c-33.568,4.387-63.707,1.947-63.707,1.947s-18.411-46.719,18.488-146.579c2.489-6.75,5.23-13.733,8.251-20.967
			c6.295-15.079,9.52-32.386,14.895-43.097c22.817-45.393,77.885-55.048,114.745-39.901c19.941,14.973,30.391,36.957,35.727,61.818
			c4.784,22.188,5.501,46.681,5.298,70.544c-0.165,18.469-0.891,36.57-0.726,52.937
			C1429.631,724.588,1414.539,726.47,1414.539,726.47z"/>
		<path style="fill:#F99370;" d="M1301.186,573.195c-36.23-6.564-75.496-5.588-112.482-0.344
			c-26.316,3.872-50.88,19.762-72.088,35.816c-13.027,10.057-25.448,21.161-37.082,32.844c-13.253,11.29-28.077-6.017-17.138-18.91
			c27.029-44.743,63.432-87.555,114.642-104.902c43.378-12.982,89.495-19.235,134.667-13.333
			C1359.21,510.613,1312.833,573.649,1301.186,573.195z"/>
		<polygon style="fill:#7F341C;" points="957.978,631.89 1114.071,712.416 1118.894,722.859 962.809,642.382 		"/>
		
			<rect x="923.738" y="675.509" transform="matrix(0.8888 0.4583 -0.4583 0.8888 451.3732 -381.3357)" style="fill:#8C4225;" width="175.588" height="128"/>
		<polygon style="fill:#7F341C;" points="904.17,756.158 899.339,745.666 957.978,631.89 962.809,642.382 		"/>
		<path style="fill:#8C4225;" d="M1074.742,692.125c0.376-0.685,0.624-1.453,0.682-2.26c0.563-8.29-0.939-16.154-4.374-22.745
			c-2.21-4.265-5.235-7.997-9.03-10.968c-1.612-1.262-3.367-2.392-5.255-3.358c-4.463-2.293-9.321-3.535-14.337-3.807
			c-9.996-0.56-20.636,2.695-30.064,9.043c-0.526,0.352-0.97,0.771-1.331,1.232c-1.811,2.246-1.75,5.48,0.506,6.62
			c0.604,0.309,1.299,0.409,2.01,0.318c0.72-0.092,1.452-0.371,2.139-0.825c1.086-0.72,2.191-1.386,3.315-1.999
			c5.568-3.041,11.52-4.807,17.327-5.078c5.328-0.256,10.536,0.742,15.222,3.154c1.899,0.974,3.627,2.141,5.184,3.469
			c2.964,2.516,5.299,5.619,6.987,9.132c2.04,4.209,3.136,9.004,3.244,14.065c0.021,1.025,0.001,2.061-0.055,3.103
			c-0.093,1.557,0.559,2.886,1.77,3.499c1.901,0.959,4.327-0.098,5.693-2.015C1074.511,692.517,1074.63,692.327,1074.742,692.125z"
			/>
		<polygon style="fill:#99452B;" points="962.809,642.382 1011.532,739.508 1118.894,722.859 		"/>
		<path style="fill:#F4D4BE;" d="M1007.306,749.792l-1.702-0.877c-3.142-1.62-4.387-5.516-2.767-8.658l4.261-8.265
			c1.62-3.142,5.516-4.387,8.658-2.767l1.702,0.877c3.142,1.62,4.387,5.516,2.767,8.658l-4.262,8.265
			C1014.344,750.167,1010.448,751.412,1007.306,749.792z"/>
		<path style="fill:#F99370;" d="M1061.792,670.826c-7.481,8.799-17.081-1.222-5.565-5.388l-0.126,0.148
			C1059.951,660.888,1065.505,666.513,1061.792,670.826z"/>
		<path style="fill:#F99370;" d="M1054.834,667.849c-10.999,8.666-15.316-6.565-5.092-6.209c-0.192-0.008,0.547-0.208,0.671-0.361
			c0.032-0.017,0.218-0.16,0.075-0.044C1055.25,657.359,1059.102,664.556,1054.834,667.849z"/>
		<path style="fill:#F99370;" d="M1047.445,664.962c-9.153,5.738-11.756-2.955-5.931-6.376
			C1050.668,652.849,1053.271,661.542,1047.445,664.962z"/>
		<path style="fill:#F99370;" d="M1041.422,661.451c-9.154,5.738-11.756-2.955-5.931-6.376
			C1044.645,649.338,1047.247,658.03,1041.422,661.451z"/>
		<path style="fill:#F99370;" d="M1065.153,645.345c13.418,19.174-3.682,26.865,1.618,31.624c4.757,2.379,7.743-4.973,9.952-8.276
			c3.076-6.124,3.543-13.452,2.147-20.081C1076.261,629.003,1060.556,635.55,1065.153,645.345z"/>
		<path style="fill:#F99370;" d="M1059.725,628.516c0,0-18.321,7.147-27.028,29.747l29.095,12.563c0,0,8.123-3.391,16.679-24.531
			L1059.725,628.516z"/>
		<path style="fill:#F99370;" d="M1383.775,500.604c5.34-19.134,6.767-47.741,5.893-59.742c-0.434-6.481-4.155-11.923-8.935-14.294
			c-12.154-6.517-29.132,2.018-27.482,17.15c1.283-0.548-2.093,39.889-5.224,50.238c0,0,6.067,24.793,23.868,24.793
			C1383.394,518.75,1383.775,500.604,1383.775,500.604z"/>
		<path style="fill:#CE3932;" d="M1406.974,360.125c0,0,10.953-3.973,15.568,5.936c4.614,9.91-3.155,14.911,3.107,23.981
			c19.736,22.722-1.051,16.885-0.875,35.332C1423.328,425.087,1382.681,366.526,1406.974,360.125z"/>
		<path style="fill:#E57D61;" d="M1353.203,441.782c-0.011,0.643-0.001,1.299,0.047,1.937c0.93-0.423-0.349,22.766-2.965,39.327
			c14.433,9.553,32.275,9.204,35.554,9.058c2.487-23.825,11.228-55.282-5.107-65.536
			C1369.415,419.44,1353.174,428.204,1353.203,441.782z"/>
		<path style="fill:#F99370;" d="M1413.087,476.676c-15.125,11.183-35.833,11.766-51.364,5.736
			c-6.486-2.391-12.308-6.091-16.827-11.239l-0.021-0.003c-18.045-22.79-18.213-62.967-1.752-85.86
			c23.989-33.806,69.469-20.116,73.381,20.83c1.146,6.314,4.082,13.537,8.269,19.231
			C1435.814,440.712,1432.527,461.489,1413.087,476.676z"/>
		<path style="fill:#F9F8F3;" d="M1406.183,453.834l-19.528-14.245C1382.476,451.935,1395.123,462.664,1406.183,453.834z"/>
		<path style="fill:#C16256;" d="M1394.643,422.495c1.932-2.581-2.166-5.557-4.022-2.919
			C1388.69,422.156,1392.788,425.132,1394.643,422.495z"/>
		<path style="fill:#C16256;" d="M1415.826,422.313c1.932-2.581-2.166-5.557-4.022-2.92
			C1409.873,421.974,1413.971,424.949,1415.826,422.313z"/>
		<path style="fill:#C16256;" d="M1405.941,454.743c0.954,0.289,1.643-1.091,0.798-1.668c-0.626,0.117-20.494-16.312-20.844-14.041
			c-0.306,0.421-0.213,1.009,0.205,1.315C1386.503,440.561,1405.485,454.643,1405.941,454.743z"/>
		<path style="fill:#E57D61;" d="M1411.748,389.986c-14.2,10.103-30.577-11.312-33.211,6.686
			c-0.922,7.551-14.258,3.163-16.438,6.427c-2.169,3.266-1.366,10.271-5.173,14.343c-3.807,4.072-20.135,7.228-20.135,7.228
			c1.184,15.987-3.179,28.815,11.049,49.483c-1.038-0.931-2.021-1.928-2.943-2.98l-0.021-0.003
			c-18.044-22.789-18.214-62.967-1.752-85.86C1359.032,359.725,1401.748,359.203,1411.748,389.986z"/>
		<path style="fill:#C16256;" d="M1403.558,442.187c4.561,1.206,13.335-0.69,7.99-5.927c-4.237-3.251-6.111-13.401-6.13-13.503
			c-0.196-1.197-2.087-0.869-1.851,0.334c0.08,0.446,2.026,10.972,6.836,14.662c0.546,0.419,1.136,1.016,0.845,1.478
			c-0.827,1.314-5.498,2.17-8.437,0.679C1400.335,439.572,1401.804,442.282,1403.558,442.187z"/>
		<path style="fill:#CE3932;" d="M1409.144,384.553c0,0,9.449-8.478,2.23-16.967c-7.219-8.489-4.989-19.143-16.808-19.191
			c-11.818-0.047-16.335,0.662-28.323-4.714c-11.988-5.376-24.529,4.975-25.313,12.988c-0.784,8.013-17.605,5.334-21.821,15.672
			c-4.215,10.338-2.223,13.958-2.964,18.611c-0.741,4.653-16.384,8.4-15.288,19.951c1.096,11.551,10.672,11.332,11.329,18.731
			c0.656,7.398-6.763,18.728,0.81,24.042c11.229,7.88,22.956,1.719,22.956,1.719c-14.884-50.627,17.196-23.763,18.737-50.964
			c-0.81-10.772,14.017-5.108,18.476-9.902C1385.105,368.466,1384.596,393.811,1409.144,384.553z"/>
		<path style="fill:#F99370;" d="M1319.583,429.19c0.741,18.919,24.604,17.717,23.437-1.183
			C1342.279,409.089,1318.416,410.292,1319.583,429.19z"/>
		<path style="fill:#C16256;" d="M1324.729,433.909c2.715-0.209-0.93-10.376,3.076-11.892c4.071-2.359,7.131,2.163,8.612,0.504
			c0.799-1.784-5.527-4.388-9.653-2.07C1324.408,421.706,1322.064,428.723,1324.729,433.909z"/>
		<path style="fill:#C16256;" d="M1333.606,433.991c3.839,1.27-3.35-13.414-9.158-10.415c-0.116,0.506,0.205,1.017,0.708,1.127
			C1332.163,426.591,1332.138,433.432,1333.606,433.991z"/>
		<path style="fill:#C16256;" d="M1383.051,415.19c0.424,0.113,0.881-0.088,1.076-0.499c3.592-7.572,12.518-7.968,12.608-7.971
			c0.511-0.018,0.912-0.446,0.895-0.957c-0.017-0.512-0.443-0.91-0.956-0.897c-0.411,0.014-10.138,0.419-14.223,9.031
			c-0.219,0.463-0.022,1.016,0.441,1.235C1382.944,415.156,1382.998,415.176,1383.051,415.19z"/>
		<path style="fill:#C16256;" d="M1415.628,411.807c0.271,0.073,0.573,0.022,0.812-0.165c0.402-0.316,0.474-0.897,0.159-1.3
			c-0.201-0.258-5.019-6.303-12.383-5.134c-0.506,0.08-0.85,0.555-0.771,1.061c0.08,0.506,0.554,0.852,1.061,0.771
			c6.269-0.993,10.589,4.391,10.632,4.446C1415.267,411.648,1415.441,411.757,1415.628,411.807z"/>
		<path style="fill:#3A72AA;" d="M1348.027,493.954c0,0-16.929,106.891-47.223,97.991c-30.294-8.9-78.011-13.355-121.041-5.191
			c-33.277,6.305-71.658,32.279-87.328,43.717c-4.581,3.341-7.225,5.443-7.225,5.443c-16.658-0.533-22.817-13.317-22.817-13.317
			s1.898-3.516,5.53-9.375c15.438-24.851,62.273-91.841,128.905-111.094C1279.168,478.342,1348.027,493.954,1348.027,493.954z"/>
		<path style="fill:#23659B;" d="M1254.133,583.607c0,0,28.778-0.401,60.511-18.634c0,0-28.435,26.594-68.762,39.601
			C1248.371,597.824,1251.112,590.841,1254.133,583.607z"/>
		<path style="fill:#F4D4BE;" d="M1332.689,491.447c-0.288,20.33,21.946,32.97,41.589,36.329l5.564-10.633
			c4.453,1.962,8.778,9.52,8.778,9.52c12.683-10.343,12.877-30.332,7.797-31.21c-7.704-1.332-12.643,5.155-12.643,5.155
			s-5.017,25.158-35.747-6.651C1343.25,489.012,1332.689,491.447,1332.689,491.447z"/>
		<path style="fill:#23659B;" d="M1092.436,630.471c-4.581,3.341-7.225,5.443-7.225,5.443
			c-16.658-0.533-22.817-13.317-22.817-13.317s1.898-3.516,5.53-9.375l0.242,0.097
			C1068.166,613.319,1073.735,626.965,1092.436,630.471z"/>
		<path style="fill:#23659B;" d="M1599.832,366.231c0,0-0.271,4.126-1.182,11.234h-0.01c-21.2,5.259-32.173-7.564-32.173-7.564
			l-0.01-0.01c2.208-3.69,4.077-7.225,5.559-10.556C1572.017,359.336,1582.961,371.955,1599.832,366.231z"/>
	</g>
</g>
</svg>
